<?xml version="1.0"?>
<svg>
  <defs>
    <svg id="lighthouse" viewBox="0 0 321.734 445.845">
      <path d="m 153.9372,593.13561 c -3.696,-3.9566 -3.6894,-7.2599 0.022,-10.9712 3.6253,-3.6252 6.9683,-3.7268 11.0002,-0.3342 2.2988,1.9343 3.0768,3.429 3.0768,5.9112 0,2.4821 -0.778,3.9768 -3.0768,5.9111 -4.1238,3.4699 -7.4432,3.3143 -11.022,-0.5169 z m 28.5534,-1.3488 c -3.614,-3.614 -3.354,-8.6108 0.6222,-11.9566 1.6922,-1.4238 3.6916,-2.5888 4.4431,-2.5888 5.7723,0 34.0199,-11.9326 44.1236,-18.639 7.0224,-4.6613 12.4642,-5.1812 15.4633,-1.4775 2.8063,3.4657 2.4463,8.2234 -0.8568,11.3221 -7.9115,7.4221 -26.1673,16.2904 -46.7102,22.691 -12.0175,3.7443 -13.9175,3.8165 -17.0852,0.6488 z m -109.454597,-8.024 c -2.475,-0.7642 -7.8009,-2.2841 -11.8353,-3.3776 -10.6023,-2.8738 -13.3623,-5.985 -11.1787,-12.6012 1.6746,-5.0741 5.4652,-5.9794 15.014,-3.5859 19.7422,4.9485 23.0193,6.7266 22.9778,12.4676 -0.05,6.9032 -6.1868,9.8111 -14.9778,7.0971 z m -104.365102,-4.594 c -2.0206,-1.5894 -2.6349,-2.9585 -2.6349,-5.8727 0,-7.317 12.0984,-15.6151 27.8427002,-19.0969 4.7615,-1.053 10.4911,-1.9243 12.7324,-1.9362 6.4107998,-0.034 26.6110018,3.9068 29.9194018,5.837 5.7136,3.3334 5.8427,10.3248 0.2674,14.4756 -2.6592,1.9798 -2.8924,1.9898 -8.0966,0.3494 -19.4624018,-6.135 -36.9428018,-4.003 -48.992002,5.9754 -3.4938,2.8934 -7.5751,2.9926 -11.0384,0.2684 z m -38.6094,-19.902 c -5.1473,-5.1473 -3.3159,-10.0073 7.188,-19.0748 18.2057,-15.7161 35.9163,-23.0437 60.9309002,-25.2095 l 12.6442998,-1.0947 0.6669,-9.5732 c 0.3668,-5.2653 1.0982,-13.3982 1.6253,-18.0732 0.5272,-4.675 1.8797,-19.525 3.0057,-33 1.1259,-13.475 2.8881,-34.175 3.916,-46 1.028,-11.825 3.0241,-35 4.4359,-51.5 1.4117,-16.5 2.6782,-30.755 2.8142,-31.6777 0.136002,-0.9227 -4.3652,-7.7751 -10.0027,-15.2276 -11.4862998,-15.1842 -12.4875998,-18.1439 -7.6693998,-22.6704 l 2.5805998,-2.4243 74.506002,0 74.505997,0 2.4134,2.8058 c 4.2098,4.8941 3.382,7.2772 -7.5866,21.8428 -11.4951,15.2648 -10.7756,12.1165 -8.5367,37.3514 0.7807,8.8 2.1153,24.1 2.9656,34 0.8503,9.9 2.2413,25.2 3.0911,34 1.5062,15.5977 2.4752,26.6844 6.4676,74 1.7353,20.5665 2.8754,32.7627 4.6003,49.2115 l 0.5464,5.2116 3.1829,-0.5511 c 18.0734,-3.1292 43.5918,-14.723 59.3661,-26.972 4.4373,-3.4457 6.496,-4.4 9.4915,-4.4 5.1066,0 7.8252,2.7433 7.8252,7.8964 0,4.6644 -2.6086,7.2569 -16.4422,16.3405 -30.5822,20.0814 -65.2434,28.9449 -95.0578,24.308 -10.365,-1.612 -27.2007,-5.7319 -42.999997,-10.5226 -38.8139,-11.7693 -58.0723,-15.922 -77.577702,-16.7284 -27.6612,-1.1435 -47.1044,5.6947 -67.2201,23.6413 -7.577,6.76 -11.8834,7.8836 -15.6767,4.0902 z M 147.6598,535.99141 c -0.3665,-3.9875 -1.5521,-17.375 -2.6346,-29.75 -2.0802,-23.7811 -5.742,-64.9168 -9.0353,-101.5 -1.0893,-12.1 -2.8575,-32.3512 -3.9294,-45.0027 -1.0719,-12.6515 -2.4223,-27.1817 -3.0009,-32.2892 -1.1899,-10.5036 -1.3122,-10.1026 5.987,-19.6259 2.7442,-3.5803 4.9894,-6.751 4.9894,-7.0459 0,-0.295 -24.075,-0.5363 -53.499997,-0.5363 -29.425,0 -53.491,0.3375 -53.48,0.75 0.011,0.4125 2.4859,4.0744 5.5,8.1375 6.1704,8.3182 6.2231,8.6251 4.4777,26.1125 -0.5215,5.225 -1.6408,17.825 -2.4872,28 -0.8465,10.175 -1.9883,22.775 -2.5375,28 -0.5491,5.225 -1.8926,20.1875 -2.9857,33.25 -4.3304,51.7527 -5.9741,70.6639 -6.9611,80.092 -0.5667,5.4132 -0.813802,10.1925 -0.5491,10.6208 0.2647,0.4283 2.6281,1.0365 5.2521,1.3517 2.624,0.3152 8.9313,1.4253 14.0164,2.467 5.0851,1.0417 9.4726,1.667 9.75,1.3895 0.2774,-0.2774 0.5044,-8.2915 0.5044,-17.8092 0,-16.101 0.1673,-17.683 2.4045,-22.7417 10.08,-22.7927 41.550897,-23.4524 53.434797,-1.1201 l 2.6607,5 0.3208,27.1596 0.3208,27.1596 6.6792,1.6155 c 7.3521,1.7783 16.8153,3.2544 22.0743,3.4433 l 3.395,0.122 -0.6663,-7.25 z M 81.442703,425.20801 c -9.8813,-1.9525 -17.6969,-7.7325 -22.1802,-16.4031 -3.5091,-6.7868 -3.7351,-18.6435 -0.4906,-25.7513 5.9409,-13.0154 20.9907,-20.2364 35.1144,-16.8481 23.518197,5.6419 30.595397,36.5151 12.016097,52.4183 -6.259897,5.3582 -16.590597,8.1391 -24.459697,6.5842 z m 12.2468,-18.4752 c 1.3431,-0.8801 3.3189,-3.0381 4.3905,-4.7957 5.209697,-8.5442 -1.3245,-19.6882 -11.544,-19.6882 -10.5776,0 -16.9895,11.4732 -11.23,20.0946 4.3693,6.5405 12.2343,8.4184 18.3835,4.3893 z m -39.3381,-77.4774 c -4.9882,-2.0577 -6.0102,-10.5357 -1.6805,-13.9414 2.5382,-1.9966 3.7836,-2.0726 33.9442,-2.0726 l 31.309397,0 2.7558,2.3704 c 3.5631,3.0649 3.8101,8.619 0.5293,11.9018 -2.1978,2.1991 -2.6292,2.2305 -33.449997,2.4354 -17.173,0.1141 -32.2066,-0.198 -33.4082,-0.6936 z m 44.6846,181.0572 0,-22.9288 -3.3036,-3.5029 c -5.5449,-5.8792 -12.9554,-6.1079 -18.2712,-0.5638 l -2.9252,3.0508 -0.3074,19.849 -0.3075,19.8491 5.8075,1.6584 c 3.1941,0.9121 8.5074,2.5012 11.8074,3.5315 3.3,1.0302 6.3375,1.8984 6.75,1.9293 0.4125,0.031 0.75,-10.2618 0.75,-22.8726 z M -64.891399,277.60651 c -2.5947,-3.2986 -2.6669,-8.35 -0.1579,-11.0431 1.9711,-2.1158 8.8338,-3.638 30.5853,-6.784 11.1987,-1.6197 33.1352002,-5.0025 41.4815002,-6.3968 6.2205998,-1.0392 9.1108998,-0.2751 11.4175998,3.0182 3.6911,5.2698 0.2974,12.1482 -6.5373,13.2499 -6.7109998,1.0818 -30.6649,4.7761 -43.3618,6.6875 -7.15,1.0764 -15.25,2.3682 -18,2.8705 -9.3696,1.7117 -13.1277,1.3215 -15.4274,-1.6022 z m 101.284402,1.6649 c -4.7134,-1.9495 -5.357,-4.4319 -5.357,-20.6645 0,-18.7549 1.6235,-27.9231 6.6642,-37.6345 6.868,-13.232 21.1004,-24.4234 35.3358,-27.7857 7.1751,-1.6947 20.0704,-1.7103 26.999997,-0.033 14.6235,3.5405 28.9031,14.967 35.4419,28.3605 5.5398,11.3475 6.5581,16.919 6.5581,35.8811 0,16.1641 -0.081,16.8281 -2.3704,19.4899 -3.0647,3.563 -8.6188,3.8102 -11.9018,0.5297 -2.0955,-2.0939 -2.2636,-3.3378 -2.8307,-20.95 -0.6535,-20.2918 -1.396,-23.7284 -6.8351,-31.6338 -3.5743,-5.195 -8.5225,-9.2651 -16.062,-13.2113 -4.992397,-2.6131 -6.422797,-2.8788 -15.499997,-2.8788 -9.1117,0 -10.5327,0.2665 -15.9973,3 -7.8121,3.9077 -15.8923,11.9599 -19.2987,19.2317 -2.5673,5.4808 -2.727,6.7264 -3.203,24.994 -0.4568,17.5312 -0.6772,19.3986 -2.501,21.1869 -2.4575,2.41 -6.2897,3.2974 -9.143,2.1174 z m 186.142997,-0.045 c -2.2,-0.4205 -10.075,-1.6828 -17.5,-2.8049 -13.4624,-2.0346 -37.4842,-5.7427 -43.8617,-6.7707 -7.188,-1.1586 -10.3468,-8.3319 -6.0657,-13.7745 2.4977,-3.1752 5.3446,-3.334 19.6122,-1.0936 5.3984,0.8477 15.6652,2.4342 22.8152,3.5255 41.5838,6.347 42.5,6.6495 42.5,14.035 0,6.8989 -5.697,9.1397 -17.5,6.8832 z M 63.393003,255.24061 c -2.7621,-1.1027 -5.357,-4.826 -5.357,-7.6867 0,-3.6365 3.0257,-11.4884 6.2115,-16.1193 3.6569,-5.3157 9.3034,-9.4937 16.4383,-12.1632 4.9804,-1.8635 5.6862,-1.9075 8.3652,-0.5222 5.2468,2.7132 6.5351,8.252 2.9728,12.7807 -1.1067,1.4069 -3.4025,2.8634 -5.1018,3.2366 -4.5332,0.9957 -10.2779,7.2316 -11.8567,12.8706 -1.7385,6.2093 -6.8401,9.5325 -11.6723,7.6035 z m -66.3570018,-17.5938 c -7.9750002,-1.3075 -20.5750002,-3.3009 -28.0000002,-4.4299 -28.4807,-4.3306 -32.0261,-5.0871 -34.0566,-7.2666 -2.5668,-2.7551 -2.4705,-7.7689 0.2148,-11.1827 2.003,-2.5465 2.5599,-2.7073 7.75,-2.2379 3.0755,0.2782 13.0168,1.6804 22.0918,3.1161 9.075,1.4357 22.445,3.5008 29.7111002,4.5892 18.2324998,2.7311 21.5245998,3.5796 23.5388998,6.0671 0.9625,1.1885 1.75,3.436 1.75,4.9944 0,3.1636 -3.4405,7.5333 -6.5,8.2554 -1.1,0.2596 -8.5249998,-0.5977 -16.4999998,-1.9051 z M 158.536,239.25561 c -3.7157,-1.4455 -5.6535,-4.5681 -5.3162,-8.5667 0.5035,-5.969 2.9868,-7.1017 21.8162,-9.9512 9.075,-1.3733 23.925,-3.6644 33,-5.0913 25.9184,-4.0754 26.4029,-4.093 29.4277,-1.0682 1.7457,1.7458 2.5723,3.6557 2.5723,5.9435 0,5.3404 -3.057,7.3988 -13.5228,9.1055 -17.4813,2.8508 -35.0793,5.5593 -42.9772,6.6145 -4.4,0.5878 -10.025,1.4724 -12.5,1.9658 -8.2517,1.6448 -10.485,1.8321 -12.5,1.0481 z m -88.325697,-52.3286 c -1.9367,-2.0615 -2.1743,-3.4203 -2.1743,-12.4349 0,-5.5662 0.48,-11.3872 1.0666,-12.9355 3.5585,-9.3917 16.4968,-14.1305 25.7233,-9.4215 7.842197,4.0025 10.210097,9.2485 10.210097,22.6197 0,8.8355 -0.1902,9.7678 -2.4545,12.0322 -2.611897,2.6119 -6.384097,3.1464 -9.695897,1.374 -3.0234,-1.6181 -4.8496,-7.0635 -4.8496,-14.4607 0,-5.7511 -0.2263,-6.5624 -1.75,-6.2724 -1.4623,0.2783 -1.8322,1.785 -2.25,9.165 -0.4388,7.7508 -0.7889,9.0655 -2.8607,10.7402 -3.2787,2.6504 -8.2672,2.4656 -10.965,-0.4061 z" transform="translate(72.706 -150.292)"/>
    </svg>
  </defs>
</svg>
