<?xml version="1.0"?>
<svg>
  <defs>
    <svg id="lighthouse_0" viewBox="0 0 1536.811 1536.388">
      <g fill="none" stroke="#fff" stroke-width="50" stroke-linecap="round" stroke-linejoin="round" stroke-miterlimit="10">
        <path d="M915.305 513.285v-216.6M621.505 296.685v216.6M709.505 1511.385h309.9l-104.1-998.1M621.505 513.285l-104.1 998.1h97.4M621.505 296.685v-120.8c0-80.8 66.1-146.9 146.9-146.9 40.4 0 77.1 16.5 103.8 43.2 26.6 26.6 43.2 63.4 43.2 103.8v120.8M719.405 306.285v207M817.405 306.285v207M566.405 296.685h404M566.405 513.285h404M25.305 25.185l450.1 271.5M25.305 784.785l450.1-271.5M1511.505 784.785l-450.1-271.5M113.205 404.985h405M1423.605 404.985h-405M1511.505 25.185l-450.1 271.5M682.505 744.485h94.6v138.3h-94.6z"/>
        <path d="M820.705 1122.285h94.6v138.3h-94.6zM614.805 1372.985h94.6v138.3h-94.6z"/>
      </g>
    </svg>
    <svg id="lighthouse_10" viewBox="0 0 350.056 479.985">
      <path d="M4.447 477.53c-3.353-3.352-3.372-9.366-.042-13.24l2.412-2.805 32.088-.29c17.648-.16 32.088-.464 32.088-.678 0-.214 8.325-57.287 18.5-126.83 10.175-69.542 18.5-126.95 18.5-127.571 0-.765-3.219-1.13-9.953-1.13-11.09 0-14.51-1.06-16.622-5.146-2.164-4.184-1.725-7.489 1.473-11.067 2.798-3.132 3.169-3.244 10.75-3.266l7.852-.022.26-42.25.261-42.25h-3.299c-4.635 0-11.8-3.889-14.414-7.823-3.204-4.823-3.844-10.798-1.723-16.098 1.495-3.738 7.384-9.292 41.057-38.722 21.62-18.896 40.783-35.256 42.584-36.353 4.035-2.46 12.57-2.678 16.915-.43 1.673.865 20.83 17.13 42.57 36.143 33.11 28.956 39.849 35.295 41.505 39.04 3.704 8.374.215 17.75-8.186 21.993-2.45 1.238-5.939 2.25-7.753 2.25h-3.3l.262 42.25.26 42.25 7.871.043c7.58.042 7.977.163 10.75 3.266 3.18 3.558 3.615 6.867 1.455 11.046-2.114 4.086-5.533 5.145-16.623 5.145-6.97 0-9.952.353-9.952 1.178 0 1.301 35.684 246.397 36.621 251.533l.586 3.21 31.984.29 31.984.289 2.412 2.806c3.385 3.937 3.289 9.545-.224 13.058l-2.636 2.636H6.902l-2.455-2.455zm254.557-17.795c.015-1.563-11.273-80.137-11.572-80.556-.12-.169-35.369 17.27-78.33 38.751-64.4 32.202-78.11 39.409-78.11 41.056 0 1.983.685 2 84 2 66.527 0 84.003-.26 84.012-1.25zm-89.166-63.897c40.51-20.432 73.842-37.307 74.072-37.501.413-.35-4.536-36.808-5.573-41.055-.503-2.06-4.922-.011-68.42 31.74-55.813 27.91-67.97 34.346-68.381 36.204-.673 3.043-6.544 44.666-6.544 46.393 0 .751.268 1.366.596 1.366.327 0 33.74-16.716 74.25-37.147zm1.172-68.87c35.19-17.609 63.982-32.46 63.982-33.003 0-2.498-6.12-41.434-6.586-41.9-.29-.29-26.488 12.512-58.22 28.447l-57.692 28.973-3.572 24.75c-1.964 13.613-3.194 24.75-2.733 24.75.462 0 29.63-14.407 64.821-32.017zm1.027-69.005l54.038-27.023-.53-3.227c-.29-1.775-.989-6.153-1.553-9.728s-1.265-7.962-1.558-9.75l-.532-3.25H128.15l-.574 2.75c-.316 1.513-2.834 18.5-5.596 37.75-2.763 19.25-5.249 36.013-5.525 37.25-.276 1.238-.042 2.25.52 2.25.563 0 25.34-12.16 55.061-27.022zm56.955-114.987v-42.008l-53.75.258-53.75.26-.26 41.75-.262 41.75h108.022v-42.01zm-62.006 27.075c-12.397-3.771-20.888-16.263-19.731-29.027 1.216-13.413 11.274-23.798 24.835-25.643 10.138-1.38 21.76 4.765 27.145 14.35 10.283 18.31-3.048 41.421-23.743 41.158-3.3-.042-7.128-.419-8.506-.838zm13.65-20.436c5.82-5.006 2.107-14.63-5.644-14.63-7.75 0-11.464 9.624-5.644 14.63 1.524 1.31 4.047 2.37 5.644 2.37 1.598 0 4.12-1.06 5.645-2.37zm64.19-68.606c-.43-1.257-68.722-61.024-69.73-61.024-1.012 0-69.51 59.765-69.937 61.02-.215.634 24.483.98 69.833.98 45.181 0 70.048-.347 69.834-.976zM7.58 201.91c-2.935-3.49-3.402-8.318-1.119-11.578.809-1.154 9.552-7.554 19.429-14.222 14.313-9.663 18.655-12.124 21.395-12.124 7.07 0 11.626 7.394 8.395 13.629-.966 1.865-7.848 7.164-19.636 15.121-15.438 10.42-18.727 12.25-22.012 12.25-3.086 0-4.384-.619-6.452-3.077zm306.359-9.174c-11.789-7.957-18.67-13.256-19.637-15.121-3.23-6.235 1.325-13.629 8.396-13.629 2.74 0 7.081 2.46 21.395 12.124 9.877 6.668 18.62 13.068 19.428 14.222 4.037 5.763-.557 14.654-7.57 14.654-3.286 0-6.574-1.83-22.012-12.25zM5.35 151.994c-5.704-2.302-7.22-10.873-2.721-15.372l2.636-2.637h22.729c21.26 0 22.894.13 25.287 2.012 3.184 2.505 4.3 7.153 2.664 11.101-2.228 5.381-4.663 5.894-27.653 5.824-11.44-.035-21.764-.453-22.943-.928zm292.53-.48c-5.508-3.054-6.156-11.6-1.176-15.517 2.393-1.882 4.026-2.012 25.287-2.012h22.729l2.636 2.637c3.512 3.512 3.609 9.12.225 13.057l-2.412 2.806-22.338.239c-17.971.192-22.85-.044-24.95-1.21zM44.065 122.301c-3.138-1.32-35.687-23.765-37.3-25.721-4.136-5.015-.811-13.934 5.646-15.146 4.126-.774 5.617.01 25.229 13.232 16.142 10.885 19.352 13.943 19.352 18.438 0 5.508-8.062 11.244-12.927 9.197zm255.315-.296c-3.104-1.254-6.388-5.89-6.388-9.02 0-4.478 3.296-7.456 22.272-20.126 16.626-11.102 18.375-12.031 21.658-11.51 6.968 1.109 10.63 9.97 6.298 15.236-1.712 2.081-31.016 22.205-36.353 24.965-3.113 1.61-4.43 1.69-7.487.455z"/>
    </svg>
    <svg id="lighthouse_11" viewBox="0 0 256 479.726">
      <path d="M2.923 476.804L0 473.88v-36.307l2.923-2.923c1.608-1.608 3.633-2.923 4.5-2.923.968 0 1.578-.87 1.58-2.25 0-1.238.67-12.313 1.484-24.613 1.454-21.949 1.445-22.409-.503-24.885-2.6-3.305-2.504-5.481.394-8.926 2.338-2.78 2.436-3.762 5.954-59.727 3.556-56.593 3.565-56.915 1.622-59.385-2.569-3.265-2.465-5.452.42-8.888 2.207-2.629 2.452-4.156 3.51-21.826.624-10.45 1.389-21.363 1.698-24.25l.562-5.25h-5.149c-4.358 0-5.598-.45-8.072-2.924L8 185.88v-52.307l2.923-2.923c2.463-2.463 3.722-2.923 8-2.923H24v-48h-5.077c-4.278 0-5.537-.46-8-2.924C9.315 75.196 8 72.848 8 71.587c0-1.678 9.183-11.495 34.25-36.612C61.087 16.099 77.468.409 78.651.108c1.183-.302 3.208.053 4.5.789 1.292.735 17.311 16.438 35.599 34.895 24 24.223 33.25 34.189 33.25 35.824 0 1.245-1.315 3.58-2.923 5.187-2.463 2.464-3.722 2.924-8 2.924H136v48h5.077c4.278 0 5.537.46 8 2.923l2.923 2.923v52.307l-2.923 2.923c-2.467 2.468-3.72 2.924-8.028 2.924h-5.105l.572 6.25C137.1 204.349 151 427.122 151 430.095c0 .897.71 1.632 1.577 1.632s2.892 1.315 4.5 2.923l2.923 2.923v36.307l-2.923 2.924-2.923 2.923H5.846l-2.923-2.923zM144 455.727v-8H16v16h128v-8zm-8.49-30.25c-.726-8.319-2.51-36.275-2.51-39.33v-2.42H27v2.42c0 3.055-1.784 31.011-2.51 39.33l-.546 6.25h112.112l-.546-6.25zm-4-64c-.726-8.319-2.51-36.275-2.51-39.33v-2.42H31v2.42c0 3.055-1.784 31.011-2.51 39.33l-.546 6.25h104.112l-.546-6.25zm-4-64c-.726-8.319-2.51-36.275-2.51-39.33v-2.42H35v2.42c0 3.055-1.784 31.011-2.51 39.33l-.546 6.25h96.112l-.546-6.25zm-4-64c-.726-8.319-2.51-36.275-2.51-39.33v-2.42H39v2.42c0 3.055-1.784 31.011-2.51 39.33l-.546 6.25h88.112l-.546-6.25zM40 159.727v-16H24v32h16v-16zm32 0v-16H56v32h16v-16zm32 0v-16H88v32h16v-16zm32 0v-16h-16v32h16v-16zm-16-56v-24H40v48h80v-24zm-44.685 14.898c-4.385-1.27-9.055-6.22-10.33-10.951-4.094-15.208 14.78-26.029 25.938-14.87 8.298 8.297 4.547 22.754-6.714 25.881-4.262 1.184-4.601 1.182-8.894-.06zm27.432-77.646L80 18.232 57.253 40.979 34.506 63.727h90.989l-22.748-22.748zm88.16 112.105C174.294 136.473 168 129.545 168 127.875c0-1.266 1.315-3.618 2.923-5.225 1.608-1.608 3.96-2.923 5.226-2.923 1.67 0 8.597 6.294 25.209 22.906 21.506 21.506 22.863 23.08 22.21 25.75-.381 1.564-1.453 3.603-2.381 4.53-.928.928-2.967 2-4.53 2.382-2.67.653-4.245-.704-25.75-22.21zm4.016-44.28c-1.608-1.608-2.923-3.893-2.923-5.077 0-1.185 1.315-3.47 2.923-5.077l2.923-2.923h52.308l2.923 2.923c1.608 1.607 2.923 3.892 2.923 5.077 0 1.184-1.315 3.469-2.923 5.076l-2.923 2.924h-52.308l-2.923-2.924zm-23.898-23.898c-1.664-1.664-3.025-4.062-3.025-5.328 0-1.67 6.262-8.565 22.774-25.077s23.408-22.774 25.077-22.774c1.267 0 3.664 1.36 5.328 3.025 2.433 2.433 2.897 3.558 2.369 5.75-.896 3.718-43.054 45.876-46.773 46.772-2.191.528-3.317.064-5.75-2.368z"/>
    </svg>
    <svg id="lighthouse_1" viewBox="0 0 510.32 511.058">
      <path d="m 173.75054,610.74201 c -1.8496,-0.9659 -4.0848,-2.9829 -4.967,-4.4821 -1.9143,-3.253 -2.7532,1.0883 12.2273,-63.27414 5.7607,-24.75 14.1129,-60.75 18.5604,-80 4.4476,-19.25 8.7381,-37.7 9.5345,-41 5.7391,-23.7817 31.5077,-135.8509 31.5077,-137.0288 0,-0.8092 -0.6929,-1.4712 -1.5398,-1.4712 -2.9551,0 -9.081,-3.865 -13.1882,-8.3208 -4.9111,-5.3279 -7.272,-12.2627 -7.272,-21.3607 0,-3.4752 -0.2188,-6.3185 -0.4862,-6.3185 -0.2674,0 -34.3832,10.575 -75.813,23.5 -41.4298,12.925 -76.570602,23.5 -78.090701,23.5 -1.7215,0 -3.8664,-1.1024 -5.687,-2.9231 -5.8011,-5.8011 -3.0936,-14.281 5.4238,-16.9878 1.734199,-0.5511 39.296201,-12.2716 83.471101,-26.0456 66.9771,-20.8837 81.3033,-25.0435 86.25,-25.0435 l 5.932,0 0,-10.5 0,-10.5 -6.4425,0 c -5.6247,0 -16.9533,-3.2857 -89.25,-25.8855 -89.899601,-28.1025 -88.307501,-27.4793 -88.307501,-34.5651 0,-4.7786 1.3429,-7.1582 5.1507,-9.1273 2.5919,-1.3403 3.8392,-1.411 7.720299,-0.4375 2.546,0.6386 36.902202,11.2533 76.347102,23.5882 39.4449,12.335 72.1171,22.4272 72.6049,22.4272 0.4878,0 1.1477,-3.11 1.4664,-6.9112 0.736,-8.779 3.203,-13.5903 10.1144,-19.7253 6.4412,-5.7178 75.5347,-49.5957 79.4311,-50.443 1.4658,-0.3187 4.1498,0.01 5.9643,0.7195 5.7675,2.2709 72.0788,44.6558 77.7925,49.7235 6.9759,6.1871 9.5729,11.254 10.1925,19.8865 0.2665,3.7125 0.8811,6.75 1.3658,6.75 0.4846,0 34.8607,-10.6209 76.3913,-23.602 54.0015,-16.879 76.2395,-23.4189 78.0706,-22.9593 7.3503,1.8448 10.0602,11.3631 4.6381,16.291 -2.1281,1.9342 -21.4743,8.3525 -85.5575,28.3848 -72.2967,22.5998 -83.6252,25.8855 -89.25,25.8855 l -6.4425,0 0,10.5 0,10.5 5.893,0 c 4.8944,0 19.5101,4.2433 86.25,25.0405 44.1964,13.7723 81.776,25.4928 83.5102,26.0456 8.5194,2.7156 11.2246,11.19 5.4238,16.9908 -1.8207,1.8207 -3.9655,2.9231 -5.687,2.9231 -1.5201,0 -36.661,-10.575 -78.0907,-23.5 -41.4298,-12.925 -75.5457,-23.5 -75.8131,-23.5 -0.2674,0 -0.4862,2.8433 -0.4862,6.3185 0,9.098 -2.3608,16.0328 -7.272,21.3607 -4.1071,4.4558 -10.233,8.3208 -13.1881,8.3208 -0.8469,0 -1.5399,0.6527 -1.5399,1.4504 0,0.7978 5.2043,23.8603 11.5651,51.25 6.3608,27.3898 17.3595,74.7746 24.4417,105.2996 7.0821,30.525 18.3194,78.9 24.9716,107.5 7.9951,34.37394 11.9078,53.04744 11.543,55.09014 -0.3036,1.6995 -1.7063,4.1745 -3.1171,5.5 l -2.5651,2.4099 -135.1696,0.2562 c -127.2614,0.2412 -135.3663,0.1535 -138.5325,-1.5 z m 183.4798,-47.768 c 32.8571,-16.23154 59.857,-29.62874 59.9997,-29.77154 0.1428,-0.1428 -0.7892,-4.7499 -2.0712,-10.2381 -1.2819,-5.4882 -3.5481,-15.2661 -5.0358,-21.7286 -1.4878,-6.4625 -3.0747,-11.75 -3.5264,-11.75 -1.0761,0 -205.1939,100.97664 -206.4332,102.12204 -0.5464,0.505 19.926,0.878 48.1884,0.878 l 49.1384,0 59.7401,-29.5118 z m 73.3987,28.2618 c 0.034,-2.7234 -8.4021,-37.75004 -9.0919,-37.75004 -0.4053,0 -18.2164,8.74584 -39.5803,19.43504 l -38.8434,19.4351 43.75,0.065 c 34.3602,0.051 43.7534,-0.2033 43.7656,-1.1851 z m -132.5408,-70.64524 c 56.4936,-27.9924 103.0907,-51.2799 103.5491,-51.75 0.6051,-0.6205 -6.9666,-36.1437 -9.2925,-43.5963 -0.1684,-0.5396 -183.108,89.3456 -184.4352,90.6201 -0.1121,0.1076 -2.7211,10.979 -5.7978,24.1586 -7.1795,30.75524 -7.3372,31.46284 -7.0126,31.46284 0.1503,0 46.4953,-22.90284 102.989,-50.89524 z m 2.9403,-73.1029 c 71.9571,-35.678 86.6359,-43.2964 86.2217,-44.75 -0.2746,-0.9636 -2.5791,-10.7383 -5.1212,-21.7217 -2.542,-10.9834 -4.7593,-20.1073 -4.9273,-20.2753 -0.2872,-0.2871 -149.5131,73.3365 -150.3595,74.183 -0.2167,0.2167 -3.0411,11.7944 -6.2764,25.7281 -3.2353,13.9337 -6.1316,26.3465 -6.4364,27.584 -0.3047,1.2375 -0.3893,2.25 -0.188,2.25 0.2014,0 39.3906,-19.3491 87.0871,-42.9981 z m 8.3902,-75.7877 c 34.2679,-17.0453 62.505,-31.1911 62.749,-31.4351 0.5163,-0.5163 -9.159,-42.7172 -9.9826,-43.5407 -0.304,-0.3041 -26.7695,12.5003 -58.8122,28.4541 l -58.2595,29.0068 -5.9145,25.9004 c -3.2531,14.2451 -6.1175,26.6859 -6.3656,27.6461 -0.6,2.3231 0.8285,1.651 76.5854,-36.0316 z m 15.6947,-79.5042 15,-7.6048 -39.2114,-0.053 -39.2115,-0.053 -0.998,3.75 c -1.5518,5.8306 -9.0791,38.4525 -9.0791,39.3469 0,0.7749 43.1565,-20.003 73.5,-35.3869 z m 55.4275,-30.3449 c 1.6977,-2.1583 2.0725,-4.0572 2.0725,-10.5 l 0,-7.8651 -72,0 -72,0 0,7.8651 c 0,6.4428 0.3749,8.3417 2.0726,10.5 l 2.0726,2.6349 67.8548,0 67.8549,0 2.0726,-2.6349 z m -18.4275,-48.8651 0,-10 -51.5,0 -51.5,0 -0.2914,8.9209 c -0.1603,4.9064 -0.06,9.523 0.2221,10.259 0.4215,1.0983 9.7083,1.2918 51.7914,1.0792 l 51.2779,-0.2591 0,-10 z m 20.5,-36.9221 c 0,-6.2382 -0.1122,-6.5173 -3.9206,-9.75 -2.1564,-1.8303 -18.3547,-12.4451 -35.9962,-23.5882 l -32.0756,-20.2604 -31.1111,19.6661 c -17.111,10.8164 -33.3127,21.4065 -36.0037,23.5336 l -4.8928,3.8675 0,6.4767 0,6.4768 72,0 72,0 0,-6.4221 z" transform="translate(-55.454 -101.284)"/>
    </svg>
    <svg id="lighthouse_2" viewBox="0 0 512 479.999">
      <path d="m 504.5,481.001 -65.751,0 c -0.188,-15.698 -13.009,-28.412 -28.751,-28.412 l -98.888,0 -3.433,-81.18 c -0.001,-0.02 0.002,-0.041 10e-4,-0.061 l -1.481,-34.941 -0.365,-8.625 c -0.175,-4.139 -3.72,-7.357 -7.81,-7.176 -3.26,0.138 -5.937,2.339 -6.845,5.289 l -69.222,-16.446 1.333,-31.521 66.091,15.707 c 0.23,4.089 3.74,7.266 7.801,7.074 4.139,-0.175 7.352,-3.672 7.176,-7.811 l -0.235,-5.565 c 0,-0.001 0,-0.002 0,-0.002 l -0.062,-1.454 -3.48,-82.271 9.693,0 c 4.143,0 7.5,-3.358 7.5,-7.5 l 0,-32.208 c 0,-4.142 -3.357,-7.5 -7.5,-7.5 l -6.49,0 0,-59.226 c 3.085,-1.211 5.538,-3.706 6.695,-7.022 1.662,-4.764 0.185,-9.87 -3.766,-13.008 L 270.615,48.469 c 3.048,-3.449 4.915,-7.966 4.915,-12.921 0.002,-10.778 -8.759,-19.547 -19.53,-19.547 -10.771,0 -19.532,8.769 -19.532,19.547 0,4.955 1.867,9.472 4.915,12.921 l -36.096,28.674 c -3.95,3.138 -5.428,8.243 -3.766,13.007 1.157,3.316 3.61,5.811 6.695,7.022 l 0,12.772 c 0,4.142 3.357,7.5 7.5,7.5 4.143,0 7.5,-3.358 7.5,-7.5 l 0,-11.957 65.566,0 0,58.409 -65.566,0 0,-10.836 c 0,-4.142 -3.357,-7.5 -7.5,-7.5 -4.143,0 -7.5,3.358 -7.5,7.5 l 0,10.836 -6.49,0 c -4.143,0 -7.5,3.358 -7.5,7.5 l 0,32.208 c 0,4.142 3.357,7.5 7.5,7.5 l 9.693,0 -1.228,29.042 c 0,0.003 -0.001,0.006 -0.001,0.009 l -1.507,35.554 c -0.001,0.029 0.001,0.057 0,0.085 l -1.974,46.672 c 0,0.01 -0.002,0.02 -0.003,0.029 l -1.506,35.566 c -10e-4,0.034 0.001,0.067 0,0.1 l -4.311,101.927 -31.889,0 c -4.143,0 -7.5,3.358 -7.5,7.5 0,4.142 3.357,7.5 7.5,7.5 l 39.079,0 95.842,0 106.077,0 c 7.471,0 13.57,5.985 13.756,13.412 l -337.601,0 c 0.186,-7.427 6.285,-13.412 13.756,-13.412 l 30.424,0 c 4.143,0 7.5,-3.358 7.5,-7.5 0,-4.142 -3.357,-7.5 -7.5,-7.5 l -30.424,0 c -15.742,0 -28.563,12.714 -28.751,28.412 L 7.5,481 c -4.143,0 -7.5,3.358 -7.5,7.5 0,4.142 3.357,7.5 7.5,7.5 l 71.149,0 352.608,0 73.243,0 c 4.143,0 7.5,-3.358 7.5,-7.5 0,-4.142 -3.357,-7.499 -7.5,-7.499 z m -213.106,-139.638 0.876,20.713 -71.818,-17.063 0.859,-20.301 70.083,16.651 z m -67.459,-78.701 0.858,-20.291 63.045,14.983 0.878,20.703 -64.781,-15.395 z m 1.504,-35.554 0.994,-23.499 59.135,0 1.615,38.172 -61.744,-14.673 z M 256,31.001 c 2.499,0 4.532,2.04 4.532,4.547 0,2.474 -1.983,4.485 -4.437,4.537 -0.063,0 -0.126,0 -0.19,0 -2.454,-0.052 -4.438,-2.062 -4.438,-4.537 10e-4,-2.508 2.034,-4.547 4.533,-4.547 z m -33.956,51.987 0,0 33.956,-26.974 33.956,26.974 -67.912,0 z m -12.818,105.615 0,-17.208 0.001,0 6.49,0 80.566,0 6.49,0 0,17.208 -93.547,0 z m 56.799,263.981 -20.05,0 0,-44.159 c 0,-5.528 4.497,-10.026 10.025,-10.026 5.528,0 10.025,4.498 10.025,10.026 l 0,44.159 z m 15,0.004 0,-44.164 c 0,-13.799 -11.227,-25.026 -25.025,-25.026 -13.798,0 -25.025,11.227 -25.025,25.026 l 0,44.164 -15.072,0 3.904,-92.312 73.122,17.373 3.169,74.939 -15.073,0 z" transform="translate(0 -16.001)"/>
      <path d="M189.803 100.948L38.526 65.28c-4.021-.951-8.069 1.547-9.021 5.579-.949 4.032 1.548 8.071 5.58 9.021l151.276 35.666c.578.137 1.157.202 1.728.202 3.399 0 6.479-2.328 7.293-5.78.95-4.032-1.547-8.069-5.579-9.02zM195.382 145.534c-.951-4.033-4.995-6.528-9.021-5.579L35.085 175.621c-4.032.95-6.529 4.989-5.579 9.021.814 3.453 3.893 5.78 7.293 5.78.57 0 1.149-.065 1.728-.202l151.276-35.666c4.032-.951 6.529-4.988 5.579-9.02zM482.494 70.86c-.951-4.032-4.995-6.526-9.021-5.579l-151.276 35.666c-4.032.951-6.529 4.989-5.579 9.021.815 3.453 3.894 5.78 7.293 5.78.57 0 1.149-.065 1.728-.202L476.915 79.881c4.032-.95 6.529-4.989 5.579-9.021zM476.915 175.623L325.639 139.957c-4.022-.952-8.069 1.546-9.021 5.579-.95 4.031 1.547 8.069 5.579 9.02l151.276 35.666c.578.137 1.157.202 1.728.202 3.399 0 6.479-2.328 7.293-5.78.95-4.033-1.547-8.072-5.579-9.021zM260.572 102.444l-8.339 0c-7.606 0-13.794 6.188-13.794 13.793l0 23.03c0 7.606 6.188 13.793 13.794 13.793l8.339 0c7.606 0 13.794-6.188 13.794-13.793l0-23.03c0-7.605-6.188-13.793-13.794-13.793zm-1.206 35.616l-5.927 0 0-20.617 5.927 0 0 20.617z" transform="translate(0 -16.001)"/>
    </svg>
    <svg id="lighthouse_3" viewBox="0 0 334.746 447.461">
      <path d="M2.722 445.12C.777 443.446 0 441.83 0 439.46c0-2.37.777-3.985 2.722-5.658 2.556-2.198 3.53-2.342 15.917-2.352l13.194-.01 9.253-8.935c9.497-9.17 24.555-19.929 36.494-26.073 3.71-1.91 6.748-3.988 6.75-4.618.01-2.027 21.935-249.738 22.395-252.986.415-2.925.21-3.17-3.098-3.707-4.993-.81-7.294-3.227-7.294-7.66 0-5.062 2.64-7.223 9.516-7.794l5.484-.454V55.709l-5.484-.455c-6.877-.57-9.516-2.731-9.516-7.793 0-5.209 2.645-7.274 9.996-7.806l5.921-.428 1.601-4.82c9.82-29.563 50.57-43.55 81.454-27.96 12.392 6.255 21.698 16.483 25.55 28.077l1.64 4.937h5.496c4.741 0 5.897.402 8.42 2.923 1.607 1.608 2.922 3.893 2.922 5.077 0 1.185-1.315 3.47-2.923 5.077-2.463 2.463-3.722 2.923-8 2.923h-5.077v64h5.077c4.278 0 5.537.46 8 2.923 1.608 1.608 2.923 3.893 2.923 5.077 0 3.002-5.262 8-8.423 8-2.076 0-2.577.482-2.577 2.478 0 1.363 4.95 58.81 11 127.658 6.05 68.85 11 125.7 11 126.337 0 .636 3.713 3.096 8.25 5.467 12.764 6.67 25.333 15.718 35.159 25.31l8.963 8.75h13.259c12.461 0 13.421.141 15.98 2.342 3.736 3.213 3.736 8.103 0 11.317l-2.722 2.341H5.445l-2.723-2.341zm274.111-17.29c-14.173-12.569-38.119-24.47-61.224-30.427-51.413-13.256-110.165-3.962-148.776 23.535-4.4 3.134-9.114 6.783-10.477 8.11l-2.477 2.413 113.477-.042 113.477-.042-4-3.547zm-167-43.89c10.566-3.29 26.775-6.378 37.456-7.136l8.616-.612 35.79-35.115 35.792-35.116-2.633-28.972c-1.448-15.935-2.737-29.077-2.864-29.204-.127-.127-26.989 25.71-59.694 57.415-51.868 50.285-59.543 58.101-60.09 61.204-1.218 6.913-2 20.057-1.191 20.042.45-.01 4.418-1.136 8.818-2.506zm124.5 1.596c0-1.867-5.061-57.601-5.304-58.407-.138-.458-11.713 10.433-25.723 24.2l-25.473 25.034 4.5.068c10.537.158 38.337 5.423 47 8.9 3.225 1.295 5 1.367 5 .205zm-68-105.568c28.325-27.397 52.094-50.353 52.82-51.015 1.09-.993.92-5.824-.976-27.847-1.262-14.655-2.53-26.642-2.82-26.638-.483.006-55.598 52.908-90.394 86.766l-14.871 14.47-2.86 31.629c-1.572 17.395-2.867 31.838-2.878 32.094-.024.543-3.847 4.21 61.98-59.459zm0-80.062l47.5-45.84-.255-4.052c-.141-2.23-.511-6.415-.822-9.303l-.567-5.25-19.178.013-19.178.013-21 19.602c-11.55 10.781-24.17 22.663-28.044 26.403l-7.044 6.801-2.26 26.334c-1.242 14.484-2.519 28.81-2.836 31.834l-.576 5.5 3.38-3.108c1.86-1.709 24.755-23.735 50.88-48.947zm-23.76-56.195l8.713-8.25h-28.694l-.604 5.75c-.332 3.163-.9 9.8-1.264 14.75l-.661 9 6.898-6.5c3.794-3.575 10.82-10.212 15.612-14.75zm64.76-56.25v-32h-80v64h80v-32zm-47 22.464c-17.981-5.584-22.212-29.691-7.218-41.128 6.025-4.595 13.326-6.03 20.297-3.99 11.03 3.227 17.347 11.478 17.347 22.654 0 10.975-6.285 19.375-16.857 22.529-5.919 1.766-7.699 1.757-13.569-.065zm12.686-16.638c3.053-2.868 3.12-8.34.14-11.511-3.155-3.358-8.985-3.2-11.753.32-4.364 5.548-1.039 13.365 5.685 13.365 2.334 0 4.433-.77 5.928-2.174zm33.314-54.63c0-1.768-5.868-9.888-9.352-12.94-15.665-13.721-43.63-13.721-59.295 0-3.484 3.052-9.353 11.172-9.353 12.94 0 .442 17.55.804 39 .804s39-.362 39-.804zm-154 95.51c-3.422-1.73-5.282-5.833-4.08-8.996 1.126-2.96 3.42-4.62 16.725-12.098 10.926-6.143 13.89-6.542 16.879-2.275 2.006 2.864 1.863 8.016-.274 9.88-2.39 2.086-24.555 14.787-25.772 14.769-.538-.008-2.103-.584-3.478-1.28zm214-5.312c-14.213-8.23-15-8.909-15-12.938 0-1.779.788-4.165 1.75-5.302 3.501-4.137 5.958-3.685 18.25 3.363 6.325 3.626 12.363 7.444 13.417 8.483 4.008 3.95 1.485 11.072-4.417 12.464-1.905.45-5.234-.994-14-6.07zM42.723 93.12C40.776 91.446 40 89.83 40 87.46c0-2.37.777-3.985 2.722-5.658 2.573-2.213 3.489-2.342 16.611-2.342 13.123 0 14.039.13 16.611 2.342 1.946 1.673 2.723 3.288 2.723 5.658 0 2.37-.777 3.985-2.723 5.659-2.572 2.212-3.488 2.341-16.61 2.341-13.123 0-14.04-.129-16.612-2.341zm216 0C256.776 91.446 256 89.83 256 87.46c0-2.37.777-3.985 2.722-5.658 2.573-2.213 3.489-2.342 16.611-2.342 13.123 0 14.039.13 16.611 2.342 3.736 3.213 3.736 8.103 0 11.317-2.572 2.212-3.488 2.341-16.61 2.341-13.123 0-14.04-.129-16.612-2.341zM63.332 60.925c-6.325-3.617-12.362-7.426-13.416-8.464-2.39-2.355-2.48-7.352-.177-9.897 3.707-4.095 6.11-3.644 18.48 3.472 14.301 8.228 15.113 8.925 15.113 12.97 0 1.778-.787 4.164-1.75 5.302-3.473 4.104-5.964 3.642-18.25-3.383zm192.316 5.53c-4.303-1.734-5.894-9.307-2.566-12.21.963-.84 6.977-4.534 13.364-8.209 12.37-7.116 14.773-7.567 18.48-3.472 2.302 2.545 2.213 7.542-.177 9.898-2.317 2.284-24.382 15.025-25.866 14.936-.578-.035-2.034-.46-3.235-.944z"/>
    </svg>
    <svg id="lighthouse_4" viewBox="0 0 167.909 256">
      <path d="M1.571 254.429C.707 253.564 0 252.47 0 252c0-.471.707-1.564 1.571-2.429C2.78 248.363 5.341 248 12.66 248h9.517l5.14-4.496c2.827-2.473 8.139-6.072 11.804-7.998 3.665-1.926 6.937-4.215 7.271-5.086.334-.87.608-3.75.608-6.397v-4.814l33.558-32.713c18.456-17.993 33.72-32.552 33.918-32.353.198.198 1.766 16.785 3.483 36.859 1.718 20.074 3.332 37.487 3.588 38.697.316 1.492 2.64 3.341 7.23 5.754 3.722 1.955 9.079 5.578 11.906 8.05l5.14 4.497h9.517c7.319 0 9.88.363 11.089 1.571 1.973 1.974 1.973 2.884 0 4.858C165.026 255.83 156.173 256 84 256s-81.026-.169-82.429-1.571zm47.427-51.062c0-1.027.529-7.858 1.176-15.18l1.177-13.313 30.075-29.187L111.5 116.5l.683 8c.375 4.4.913 10.106 1.194 12.68l.512 4.68-32.445 31.686c-21.04 20.55-32.445 31.031-32.446 29.82zm4-44.501c0-1.301.534-8.216 1.187-15.366l1.188-13 18.438-17.25L92.25 96H110V105.751l-28.5 27.74c-22.827 22.218-28.5 27.27-28.502 25.375zm4.451-51.91c.406-5.75.861-10.585 1.014-10.742.152-.158 4.858-.158 10.457 0l10.18.286-11.193 10.456-11.194 10.456.736-10.456zM25.521 87.379c-2.664-2.664-1.375-4.584 5.87-8.746 7.427-4.266 10.109-4.155 10.109.422 0 1.822-1.434 3.172-6.5 6.121-7.508 4.371-7.347 4.334-9.479 2.203zm107.229-2.44c-6.973-4.184-8.262-6.44-5.154-9.019C130.18 73.775 144 81.73 144 85.363c0 .744-3.044 3.638-3.821 3.632-.374-.003-3.716-1.828-7.429-4.056zm-79.179 1.49C52.707 85.564 52 84.47 52 84c0-1.705 3.197-4 5.571-4H60V48h48v32h2.429c2.374 0 5.571 2.295 5.571 4 0 .471-.707 1.564-1.571 2.429C113.073 87.785 108.9 88 84 88s-29.073-.215-30.429-1.571zm35.974-15.884c7.45-7.449-3.55-18.586-11.23-11.37C73.31 63.875 77.061 73 84 73c1.948 0 3.998-.907 5.545-2.455zm-72.934-4.117c-.332-.865-.14-2.44.428-3.5C17.924 61.273 19.193 61 26 61s8.076.273 8.961 1.928C37.151 67.02 35.421 68 26 68c-7.067 0-8.904-.308-9.39-1.572zm116 0c-.332-.865-.14-2.44.428-3.5.876-1.637 2.147-1.928 8.425-1.928 7.749 0 11.27 1.644 10.094 4.71-.307.8-.558 1.642-.558 1.872 0 .23-4.002.418-8.893.418-7.165 0-9.01-.306-9.496-1.572zM31.735 51.224c-7.18-3.902-8.304-5.293-6.696-8.296 1.43-2.672 2.544-2.466 9.965 1.844 6.917 4.016 8.766 7.21 5.262 9.086-1.44.77-3.35.18-8.53-2.634zm95.822 2.441c-2.953-2.159-1.382-4.8 5.278-8.872 6.367-3.893 9.39-4.253 10.541-1.255.998 2.601-.319 4.01-7.244 7.75-5.831 3.15-7.054 3.49-8.575 2.377zM53.57 38.429C52.707 37.564 52 36.47 52 36c0-1.81 3.265-4 5.96-4 2.41 0 2.91-.49 3.453-3.386.954-5.09 7.77-12.242 13.658-14.333L80 12.531V7.837C80 3.429 81.75 0 84 0s4 3.43 4 7.837v4.694l4.929 1.75c5.888 2.091 12.704 9.243 13.658 14.333.544 2.896 1.043 3.386 3.453 3.386 2.695 0 5.96 2.19 5.96 4 0 .471-.707 1.564-1.571 2.429C113.073 39.785 108.9 40 84 40s-29.073-.215-30.429-1.571z"/>
    </svg>
    <svg id="lighthouse_5" viewBox="0 0 431.771 463.166">
      <path d="M141.079 462.447c-3.811-1.553-5.473-5.23-4.813-10.648.325-2.669 5.504-67.627 11.509-144.352 6.005-76.725 11.152-141.413 11.438-143.75l.52-4.25h-9.058c-8.721 0-9.17-.111-12.043-2.985l-2.985-2.986.312-18.49c.392-23.27.146-22.867 14.338-23.386l9.474-.346v-47.56l-5.56-.46c-3.881-.323-6.195-1.098-7.666-2.569-2.894-2.894-2.754-7.717.31-10.667C150.88 46.12 211.104 1.272 213.52.353c1.27-.484 3.272-.468 4.597.036 2.692 1.023 65.423 47.865 67.57 50.455 2.086 2.517 1.744 7.386-.691 9.821-1.472 1.471-3.785 2.246-7.667 2.568l-5.56.461v47.56l9.475.346c14.192.52 13.945.117 14.338 23.387l.312 18.49-2.985 2.985c-2.874 2.874-3.322 2.985-12.043 2.985h-9.058l.52 4.25c.285 2.337 5.435 67.025 11.443 143.75 6.009 76.725 11.192 141.807 11.518 144.628.52 4.488.286 5.487-1.876 8l-2.47 2.872-73.836.196c-41.527.11-74.796-.194-76.029-.696zm138.142-19.25c-.28-2.338-5.206-64.325-10.945-137.75-5.738-73.425-10.71-136.313-11.049-139.75l-.616-6.25H174.93l-.617 6.25c-.34 3.437-5.311 66.325-11.048 139.75s-10.661 135.412-10.943 137.75l-.513 4.25h127.924l-.512-4.25zm-98.43-29.042c-4.415-2.22-5.093-5.041-4.795-19.933.244-12.193.498-13.945 2.275-15.687 3.38-3.316 6.827-3.571 10.109-.748l2.89 2.486v15.06c0 13.75-.173 15.225-2 16.981-2.8 2.694-5.584 3.298-8.48 1.841zm56.288-135.727c-4.748-1.893-5.487-4.757-5.135-19.898.3-12.88.507-14.214 2.521-16.225 2.876-2.873 7.737-2.871 10.611.003 2.064 2.063 2.195 3.086 2.195 17.139 0 13.636-.175 15.113-2 16.867-2.573 2.474-5.435 3.213-8.192 2.114zm42.692-142.981v-8h-128v16h128v-8zm-24-31.904V95.64l-9.474-.347c-10.828-.396-13.86-2.113-13.86-7.846 0-5.734 3.032-7.45 13.86-7.847l9.474-.346V63.447h-80V79.254l9.474.346c10.827.396 13.86 2.113 13.86 7.847 0 5.733-3.033 7.45-13.86 7.846l-9.474.347V111.447h80v-7.904zm-.55-56.946c-2.441-2.181-37.833-28.36-38.89-28.766-.66-.253-4.093 1.749-7.63 4.448-3.537 2.7-12.44 9.466-19.785 15.038l-13.354 10.13h40.304c22.175 0 39.877-.382 39.355-.85zM2.59 156.421c-2.438-2.438-2.896-3.553-2.36-5.75.366-1.498 1.425-3.486 2.353-4.418 2.212-2.22 105.844-42.08 109.492-42.114 3.252-.03 6.294 2.68 7.205 6.417 1.363 5.592-.551 6.538-57.39 28.379-29.358 11.281-54.03 20.512-54.826 20.512-.797 0-2.81-1.362-4.473-3.026zm366.68-17.554c-56.42-21.762-58.37-22.73-57.01-28.311.91-3.738 3.953-6.447 7.204-6.417 3.648.034 107.28 39.894 109.493 42.114.927.932 1.986 2.92 2.352 4.418.536 2.197.079 3.312-2.36 5.75-1.664 1.664-3.848 2.995-4.852 2.957-1.005-.038-25.677-9.268-54.827-20.511zm-312-88C.85 29.105-1.1 28.137.26 22.556c.91-3.738 3.953-6.447 7.204-6.417 3.648.034 107.28 39.894 109.493 42.114.927.932 1.986 2.92 2.352 4.418.536 2.197.079 3.312-2.36 5.75-1.664 1.664-3.848 2.995-4.852 2.957-1.005-.038-25.677-9.268-54.827-20.511zm259.857 19.579c-2.558-1.021-5.357-4.766-5.357-7.166 0-4.757 3.685-6.497 57.879-27.322 29.358-11.281 54.03-20.511 54.827-20.511 2.154 0 7.294 5.543 7.294 7.867 0 5.05-3.167 6.563-56.5 26.989-28.6 10.953-52.9 20.158-54 20.456-1.1.298-2.965.157-4.143-.313z"/>
    </svg>
    <svg id="lighthouse_6" viewBox="0 0 270.632 342.006">
      <path d="m 311.85039,610.31848 c -0.1407,-0.1407 -8.0087,-0.3245 -17.4845,-0.4085 -16.3031,-0.1445 -17.3082,-0.266 -18.7062,-2.262 -1.8999,-2.7124 -1.8873,-6.0792 0.029,-7.6693 2.2598,-1.8754 61.2758,-1.966 62.4317,-0.096 0.6772,1.0958 0.8994,1.0895 1.2746,-0.036 0.6055,-1.8167 8.9421,-1.8097 11.134,0.01 1.9724,1.637 2.1819,6.7422 0.3517,8.5724 -1.1188,1.1188 -38.0144,2.9055 -39.0299,1.89 z m 126.4116,-0.1036 c -25.7691,-0.2958 -26.0797,-0.3711 -26.0797,-6.3184 0,-5.643 0.1463,-5.6643 38.0964,-5.5327 37.9788,0.1317 37.9036,0.1196 37.9036,6.0734 0,5.7881 -4.4226,6.3 -49.9203,5.7777 z m -74.7504,-1.0065 c -2.4496,-1.5582 -2.6926,-6.2091 -0.4491,-8.5971 5.4696,-5.8222 40.1198,-2.382 40.1198,3.9832 0,4.6953 -33.4305,8.5834 -39.6707,4.6139 z m -115.1068,-22.7814 c -8.9504,-6.2691 4.5202,-12.9314 18.5275,-9.1634 1.2375,0.3329 2.25,0.2689 2.25,-0.1423 0,-0.4111 7.2,-0.8633 16,-1.0048 9.6803,-0.1557 16,0.12 16,0.698 0,0.5254 0.6696,1.2122 1.488,1.5263 0.8599,0.3299 1.3875,0.059 1.25,-0.6431 -0.3093,-1.5777 13.8445,-2.2034 17.5942,-0.7778 3.1027,1.1797 3.7992,6.7895 1.1696,9.4192 -1.9356,1.9356 -39.5165,2.2166 -40.7331,0.3046 -0.5428,-0.8531 -0.7421,-0.8292 -0.7534,0.09 -0.025,2.0272 -29.8592,1.7481 -32.7928,-0.3067 z m 87.6398,0.3442 c -2.7501,-2.1823 -3.1744,-6.4754 -0.8679,-8.7819 2.5764,-2.5764 90.0539,-3.1532 93.5228,-0.6166 2.0905,1.5286 2.4619,7.0314 0.6004,8.8944 -1.8284,1.8297 -90.9776,2.3116 -93.2553,0.5041 z m 104.672,-0.396 c -2.1184,-2.1184 -1.9205,-6.0053 0.4251,-8.3509 2.7219,-2.7219 68.9768,-3.1744 72.799,-0.4972 2.7678,1.9386 2.9746,6.4833 0.401,8.8124 -2.6769,2.4225 -71.205,2.4558 -73.6251,0.036 z m -132.7954,-21.398 c -4.3716,-0.793 -4.2706,-0.7117 -5.0767,-4.0818 -1.1582,-4.8416 8.3932,-10.0543 9.6303,-5.2558 0.4262,1.653 0.4875,1.6628 0.5915,0.094 0.089,-1.3474 1.0124,-1.75 4.0127,-1.75 4.4011,0 3.7442,2.6136 7.6658,-30.5 0.9119,-7.7 1.8655,-14.675 2.1191,-15.5 0.2536,-0.825 0.6456,-4.5706 0.871,-8.3236 0.2255,-3.753 0.8239,-8.478 1.3298,-10.5 0.506,-2.022 1.2076,-7.5014 1.5592,-12.1764 0.3516,-4.675 1.2785,-12.775 2.0597,-18 0.7813,-5.225 1.8659,-14 2.4102,-19.5 1.1128,-11.2431 4.7054,-38.9896 5.519,-42.624 0.2926,-1.3068 0.7319,-5.751 0.9762,-9.876 0.2443,-4.125 0.7509,-8.2875 1.1257,-9.25 0.5529,-1.4197 0.1372,-1.75 -2.2029,-1.75 -6.4457,0 -7.3295,-1.8088 -7.3295,-15 0,-13.4889 0.8206,-15 8.1455,-15 3.7004,0 3.7004,0 3.7109,-28.25 0.012,-32.9007 -0.4818,-30.6202 7.4382,-34.3375 3.413,-1.6019 6.4304,-3.1526 6.7054,-3.446 5.8628,-6.25584 23.5458,-13.27781 26.3571,-10.46651 0.825,0.825 1.8023,1.5 2.1718,1.5 1.1658,0 20.9551,11.30801 21.3044,12.17381 0.1834,0.4544 0.9923,0.8262 1.7978,0.8262 5.7479,0 6.3689,3.2808 6.3689,33.646 0,28.354 0,28.354 4.25,28.3858 7.2719,0.054 7.75,0.9617 7.75,14.706 0,13.1782 -0.1945,13.6525 -6.0449,14.7456 -3.5449,0.6623 -3.5449,0.6623 -1.72,16.3394 1.0037,8.6225 1.604,16.8831 1.334,18.3569 -0.2701,1.4738 -0.117,2.8238 0.34,3 0.6922,0.2668 3.2344,19.7226 8.1432,62.3203 0.4436,3.85 1.2791,10.825 1.8566,15.5 0.5775,4.675 1.2709,10.975 1.5409,14 0.8304,9.3026 3.3895,29.2031 4.5009,35 0.5799,3.025 1.1657,7.3 1.3018,9.5 0.2475,4 0.2475,4 8.2001,4.2957 10.4758,0.3896 14.1151,4.6366 8.6532,10.0985 -1.9553,1.9553 -139.0839,2.9646 -149.3669,1.0993 z m 97.4959,-11.1458 c 22.9661,0.1317 22.9661,0.1317 22.2522,-7.108 -0.8809,-8.9329 -0.7588,-8.7397 -5.523,-8.7397 -8.5923,0 -9.1456,-10.1067 -0.592,-10.8157 3.8091,-0.3158 3.8091,-0.3158 3.1466,-6.5 -1.0057,-9.3878 -1.0929,-9.5359 -5.8111,-9.8792 -7.375,-0.5366 -9.2485,-10.7802 -1.979,-10.8204 7.5604,-0.042 6.8776,-15.2637 -0.7089,-15.8034 -10.0264,-0.7133 -9.7307,-12.1813 0.3142,-12.1813 2.7043,0 2.854,-0.2075 2.3435,-3.25 -0.2998,-1.7875 -0.8395,-5.1625 -1.1991,-7.5 -0.6342,-4.1213 -0.7666,-4.25 -4.375,-4.25 -8.5765,0 -10.5921,-9.6639 -2.3532,-11.2826 7.5893,-1.4912 6.0349,-15.0903 -1.8443,-16.1355 -9.1645,-1.2157 -9.0801,-11.5819 0.094,-11.5819 3.3471,0 3.6201,-1.1964 2.3641,-10.3604 -0.5843,-4.2629 -0.8632,-4.6396 -3.4349,-4.6396 -4.5841,0 -7.6248,-1.6511 -8.3481,-4.5329 -1.0317,-4.1107 1.6391,-7.4671 5.9419,-7.4671 3.9962,0 4.1167,-0.4809 2.3389,-9.3332 -1.138,-5.6668 -1.138,-5.6668 -27.2959,-5.6668 -28.247,0 -26.5761,-2.6147 -31.9514,50 -0.3471,3.3968 -1.6397,13.1378 -3.6494,27.5 -1.1373,8.1281 -2.7699,22.3704 -3.9547,34.5 -0.4566,4.675 -1.7862,15.25 -2.9546,23.5 -1.1684,8.25 -2.5578,19.05 -3.0877,24 -0.5299,4.95 -1.2471,11.1293 -1.5938,13.7316 -0.5546,4.163 40.2663,8.3092 48.0099,4.8764 0.4864,-0.2156 11.2191,-0.3328 23.8505,-0.2603 z m -33.4788,-15.6234 c -5.8837,-0.4135 -6.3583,-1.2393 -7.0244,-12.2243 -1.2271,-20.2336 14.9557,-30.3653 27.8714,-17.4496 15.6152,15.6152 4.4876,31.4544 -20.847,29.6739 z m 13.244,-16.1018 c 0,-5.9536 -1.793,-7.9934 -5.5296,-6.2909 -4.8162,2.1943 -3.5871,11.1684 1.5296,11.1684 4,0 4,0 4,-4.8775 z m -10.7883,-38.0934 c -8.5848,-0.6232 -8.7282,-0.7811 -9.5515,-10.521 -0.9593,-11.3486 3.7348,-22.5081 9.4679,-22.5081 0.9646,0 2.032,-0.45 2.3719,-1 4.2479,-6.8733 20.6114,5.1775 20.6482,15.2063 0.072,19.7573 -0.7512,20.4332 -22.9365,18.8228 z m 10.5888,-16.7813 c -0.5823,-8.8024 -6.8905,-8.515 -7.8057,0.3557 -0.5052,4.8965 -0.5052,4.8965 3.8005,4.5418 4.3057,-0.3547 4.3057,-0.3547 4.0052,-4.8975 z m -17.8383,-39.0772 c -2.9179,-2.3629 -3.1648,-18.8341 -0.3705,-24.7225 5.4463,-11.4773 24.0681,-10.6864 29.0486,1.2336 2.0738,4.9632 2.0525,19.612 -0.033,22.795 -2.1423,3.2696 -24.7866,3.8181 -28.645,0.6939 z m 18.0378,-15.2424 c 0,-5.5915 -2.3291,-7.8928 -6,-5.9282 -3.4779,1.8613 -2.883,10.7559 0.75,11.2139 4.5906,0.5787 5.25,-0.085 5.25,-5.2857 z m 32.6667,-51.9389 c 0,-3.4201 1.7461,-3.2257 -27.9167,-3.109 -12.054,0.047 -14.75,-0.1997 -14.75,-1.3521 0,-0.7756 -0.408,-1.6623 -0.9068,-1.9705 -0.4987,-0.3083 -0.684,0.291 -0.4119,1.3317 0.4682,1.7902 -0.2572,1.8908 -13.4741,1.8686 -15.4785,-0.026 -16.1422,0.1313 -15.467,3.6633 0.8251,4.3161 72.9265,3.8891 72.9265,-0.432 z m -12.438,-17.7393 c 0.2633,-1.5125 0.3374,-6.575 0.1648,-11.25 -0.1727,-4.675 -0.3318,-12.1066 -0.3537,-16.5148 -0.04,-8.0147 -0.04,-8.0147 -24.0398,-8.0508 -24,-0.036 -24,-0.036 -24.0146,2.5148 -0.091,15.9742 -0.1214,32.9001 -0.061,34.3008 0.1518,3.516 47.6894,2.5319 48.3042,-1 z m -30.7287,-1.6616 c -12.358,-5.4926 -12.5355,-23.6611 -0.2851,-29.1853 19.0303,-8.5815 32.83,18.7824 14.1037,27.9667 -5.9411,2.9138 -9.3317,3.2128 -13.8186,1.2186 z m 9.3,-11.7884 c 3.3943,-3.3943 -0.5974,-9.0492 -4.8,-6.8 -3.5297,1.889 -2.0019,8 2,8 0.88,0 2.14,-0.54 2.8,-1.2 z m -12.5491,-33.05 c 0.3177,-0.9509 4.4053,-1.1725 17.0833,-0.926 10.0822,0.196 16.6658,-0.051 16.6658,-0.6257 0,-0.7649 -18.8738,-12.6552 -22.3429,-14.0757 -0.8641,-0.3539 -12.7914,5.359 -15.102,7.2334 -0.5803,0.4708 -3.0571,1.8208 -5.5039,3 -6.4956,3.1305 -6.3957,4.644 0.3064,4.644 3.0384,0 5.8025,0.45 6.1424,1 0.8527,1.3798 2.2488,1.2529 2.7509,-0.25 z m -77.0284,65.6933 c -2.8097,-1.9679 -3.113,-7.9178 -0.4725,-9.2673 13.9254,-7.1174 29.25,-9.2758 29.25,-4.1198 0,2.8165 -1.8272,6.9438 -3.0741,6.9438 -0.618,0 -2.5417,0.6579 -4.2748,1.462 -11.8756,5.5099 -18.4815,7.0455 -21.4286,4.9813 z m 166.7775,0.2633 c -1.375,-0.7045 -4.525,-1.8638 -7,-2.5762 -13.5591,-3.9024 -18.3421,-8.7958 -13.1713,-13.4754 2.4389,-2.2071 24.8728,3.4668 28.3089,7.1597 4.5895,4.9326 -1.9403,12.0676 -8.1376,8.8919 z m -191.4746,-30.4124 c -7.0588,-0.599 -10.6516,-6.4548 -6.218,-10.1344 1.9668,-1.6322 54.2596,-1.7641 56.2144,-0.1417 1.8045,1.4976 1.9288,6.0001 0.2282,8.2626 -1.273,1.6935 -37.0786,3.129 -50.2246,2.0135 z m 175.3665,-0.09 c -2.6116,-0.4815 -4.41,-4.829 -3.3018,-7.9817 1.358,-3.8633 54.568,-4.9136 57.6599,-1.1382 2.2369,2.7314 2.2041,4.1338 -0.1647,7.0546 -1.7609,2.1712 -44.7359,3.8089 -54.1934,2.0653 z m -138.8919,-27.9507 c -13.3265,-4.8852 -13.961,-5.3112 -13.9847,-9.3888 -0.037,-6.395 6.5947,-6.8662 19.4847,-1.3845 1.65,0.7017 5.25,2.0769 8,3.0559 7.0854,2.5226 9.0599,7.5571 4.2775,10.9069 -3.0279,2.1207 -3.5445,2.0281 -17.7775,-3.1895 z m 131.655,2.9174 c -3.5984,-3.9761 0.2034,-11.5908 4.8892,-9.7927 0.8578,0.3292 1.32,0.2108 1.0271,-0.2631 -0.4785,-0.7742 7.5019,-3.9857 17.7167,-7.1297 5.5165,-1.698 8.9495,0.6464 8.5188,5.8175 -0.4859,5.8326 -28.2707,15.6566 -32.1518,11.368 z" transform="translate(-245.52 -268.846)"/>
    </svg>
    <svg id="lighthouse_7" viewBox="0 0 487.917 672.535">
      <path d="m 73.069444,643.11833 c -3.8783,-0.412 -4.25,-0.6959 -4.25,-3.2457 0,-2.6816 4.9562,-52.9348 7.0593,-71.5773 0.5576,-4.9426 1.3348,-9.2836 1.7272,-9.6466 0.5933,-0.5489 123.295296,-52.7514 138.495596,-58.9218 3.5875,-1.4563 4.8732,-1.6294 5.1469,-0.6931 0.2006,0.6864 0.9031,10.023 1.5611,20.748 0.6579,10.725 1.7759,27.15 2.4844,36.5 0.7084,9.35 1.1554,17.1485 0.9934,17.33 -0.162,0.1816 -4.0748,1.1561 -8.6951,2.1658 -16.1984,3.5398 -29.7397,10.074 -39.1337,18.8836 -2.1235,1.9913 -7.0117,7.2206 -10.8628,11.6206 -16.3445,18.6744 -22.7151,24.3984 -32.2763,28.9999 -12.6311,6.0789 -20.6332,7.6389 -40.999996,7.9928 -9.35,0.1624 -18.9125,0.092 -21.25,-0.1562 z m 11.7182,-158.4795 c -0.1432,-6.1259 5.5938,-63.6242 6.4405,-64.5497 0.6002,-0.656 17.741296,-8.2441 38.091296,-16.8625 20.35,-8.6184 47.35,-20.0902 60,-25.493 12.65,-5.4027 23.1098,-9.5146 23.2439,-9.1375 0.3968,1.115 4.0648,60.6573 3.7574,60.9923 -0.3848,0.4196 -122.533696,52.8535 -130.251296,55.912 -0.6875,0.2725 -1.2643,-0.1152 -1.2818,-0.8616 z m -106.8957,-94.4918 c -4.3804,-5.5688 -4.6234,-5.2525 32.8656,-42.7857 33.3038,-33.3432 35.1107,-34.9795 38.6288,-34.9795 4.4635,0 7.4331,3.0942 7.4331,7.7449 0,2.7711 -3.9198,7.043 -34.766,37.8892 -33.0278,33.0278 -34.949,34.7659 -38.4274,34.7659 -2.7645,0 -4.1692,-0.6455 -5.7341,-2.6348 z m 311.693396,-32.1311 c -30.8462,-30.8462 -34.7659,-35.1181 -34.7659,-37.8892 0,-4.6507 2.9695,-7.7449 7.433,-7.7449 3.5181,0 5.3251,1.6363 38.6289,34.9795 37.8792,37.9239 37.7269,37.7226 32.4835,42.966 -1.6081,1.6081 -3.5854,2.4545 -5.734,2.4545 -2.9765,0 -6.4922,-3.2126 -38.0455,-34.7659 z M 98.219044,339.03183 c 0.3715,-4.2625 2.047996,-21.6313 3.725596,-38.5973 l 3.0502,-30.8474 -6.587696,-9.8943 c -6.1992,-9.3109 -7.5535,-12.9187 -5.8224,-15.5113 1.3506,-2.0227 5.0643,-3.3997 9.168896,-3.3997 l 4.0658,0 0,-26 0,-26 -5.345,0 c -6.048796,0 -8.654996,-1.8922 -8.654996,-6.2837 0,-2.2187 2.0255,-4.0913 13.050996,-12.0659 l 13.051,-9.4396 12.199,-17.2797 c 14.2287,-20.1549 16.9781,-22.3765 26.8585,-21.7026 8.449,0.5763 11.9707,3.4522 21.29,17.3859 13.7222,20.5166 14.5587,21.4534 27.5251,30.8263 6.6994,4.8427 12.5348,9.7621 12.9676,10.9321 1.0334,2.7934 -0.7398,6.5546 -3.3637,7.1347 -1.1432,0.2527 -3.8785,0.5794 -6.0785,0.726 l -4,0.2665 -0.2669,25.75 -0.2669,25.75 4.9061,0 c 5.7779,0 9.3777,2.3592 9.3777,6.1458 0,1.4478 -2.8133,6.732 -6.5943,12.386 l -6.5942,9.861 0.5091,12.5536 c 0.28,6.9045 0.6833,13.9878 0.8962,15.7407 0.3788,3.1195 0.2241,3.2549 -7.2899,6.3797 -4.2223,1.756 -28.7471,12.1343 -54.4996,23.0629 -25.7524,10.9287 -47.076996,19.8703 -47.387896,19.8703 -0.3109,0 -0.2613,-3.4875 0.1102,-7.75 z m 83.600396,-124.25 0,-26 -26.5,0 -26.5,0 0,26 0,26 26.5,0 26.5,0 0,-26 z m 129.0037,76.1984 c -24.2338,-10.7989 -28.6945,-13.115 -29.8215,-15.4838 -1.7204,-3.6157 -0.4072,-7.7154 3.1056,-9.696 2.3369,-1.3176 3.1071,-1.3036 6.9653,0.1264 10.4291,3.8652 53.4281,23.3288 55.1969,24.9848 2.8192,2.6397 2.6243,8.5818 -0.3608,10.9991 -1.271,1.0291 -3.2735,1.8479 -4.45,1.8195 -1.1766,-0.028 -14.9626,-5.7658 -30.6355,-12.75 z m -347.003696,4.0922 c -5.0194,-1.8456 -6.6789,-8.1114 -3.1513,-11.8978 1.0168,-1.0914 13.8182,-6.5741 28.4475,-12.1838 28.5297,-10.9398 29.5474,-11.1257 33.1029,-6.0496 2.0841,2.9756 2.0304,6.1088 -0.1491,8.6978 -1.0678,1.2683 -11.9722,5.9898 -27.9702001,12.1108 -26.0441999,9.9647 -27.3990999,10.3818 -30.2797999,9.3226 z m -49.5455,-74.7451 c -3.0303,-3.0303 -3.2344,-7.7656 -0.4545,-10.5455 1.9466,-1.9466 3.3333,-2 51.9274,-2 l 49.9274,0 2.1507,2.7343 c 2.5822,3.2826 2.0964,7.8458 -1.1193,10.5157 -1.9441,1.6141 -5.9077,1.75 -51.0425,1.75 l -48.9346,0 -2.4546,-2.4545 z m 379.999996,0 c -2.9997,-2.9997 -3.1313,-6.4153 -0.382,-9.9106 l 2.0726,-2.6349 49.9274,0 c 48.5941,0 49.9809,0.053 51.9275,2 2.7798,2.7799 2.5757,7.5152 -0.4546,10.5455 l -2.4545,2.4545 -49.0909,0 -49.0909,0 -2.4546,-2.4545 z m -3.7995,-53.3742 c -2.1966,-2.4272 -2.1024,-7.314 0.1883,-9.7727 1.0139,-1.0883 13.5795,-6.5751 27.9236,-12.1929 22.8177,-8.9365 26.4236,-10.0837 28.8252,-9.1707 5.318,2.022 7.0894,7.7467 3.6579,11.8215 -1.0349,1.229 -11.6879,5.9734 -26.0704,11.6108 -25.8373,10.1273 -31.2404,11.333 -34.5246,7.704 z m -271.154996,-3.6132 c -1.65,-0.75 -14.4750001,-6.3554 -28.5000001,-12.4564 -14.0249999,-6.101 -26.0624999,-11.8557 -26.7499999,-12.7883 -1.9683,-2.67 -1.5241,-8.0393 0.8625,-10.4259 2.9127,-2.9127 5.626,-2.3001 22.3875,5.0548 7.6999999,3.3788 19.8499999,8.6802 27,11.781 15.2171,6.5993 16.9,7.8822 16.9,12.8834 0,6.2992 -5.3017,8.9507 -11.9,5.9514 z m 27.3282,-46.4031 c -3.0819,-1.2075 -69.8003,-68.1956 -70.4335,-70.7182 -1.2506,-4.9829 5.0389,-10.4046 9.8553,-8.4953 1.2375,0.4905 17.6624999,16.357 36.5,35.258801 30.0577,30.160299 34.25,34.741599 34.25,37.428299 0,4.6409 -5.681,8.2859 -10.1718,6.5264 z m 211.934496,-0.7203 c -2.9546,-1.6031 -4.3221,-5.0897 -3.4064,-8.6847 0.3152,-1.2375 16.0166,-17.662499 34.892,-36.499999 32.52,-32.454801 34.5098,-34.250001 37.9627,-34.250001 2.7789,0 4.1543,0.649 5.7945,2.7343 4.1919,5.329 3.5467,6.1703 -32.2739,42.081301 -29.844,29.919399 -36.78,36.277199 -39.432,36.144399 -0.4398,-0.022 -2.0314,-0.7084 -3.5369,-1.5253 z M 95.947044,82.031831 c -2.0608,-1.7223 -22.1276,-52.285301 -22.1276,-55.755801 0,-0.9064 1.3613,-3.0093 3.0251,-4.6732 2.4387,-2.4386 3.5535,-2.8962 5.75,-2.36 1.4987,0.3658 3.4911,1.4243 4.4276,2.3521 1.7081,1.6923 21.797296,52.844701 21.797296,55.501601 0,0.7786 -0.9327,2.6013 -2.0726,4.0505 -2.4803,3.1531 -7.585296,3.5714 -10.799796,0.8848 z m 109.261496,-0.5917 c -1.818,-1.5638 -2.7157,-3.3079 -2.7021,-5.25 0.028,-3.9574 19.8555,-54.593401 21.9901,-56.158301 3.006,-2.2036 7.9533,-1.5352 10.2503,1.3849 1.1399,1.4492 2.0726,3.4529 2.0726,4.4527 0,1.4369 -12.951,37.9171 -18.1755,51.196301 -1.3808,3.5097 -5.3929,6.7161 -8.4036,6.7161 -1.2702,0 -3.5345,-1.0537 -5.0318,-2.3417 z m -53.0738,-3.6652 c -1.2015,-0.4842 -2.664,-1.7761 -3.25,-2.8709 -0.7121,-1.3307 -1.0653,-18.200201 -1.0653,-50.882101 l 0,-48.8914 2.3144,-2.1744 c 2.9456,-2.7672 8.01,-2.8498 10.6856,-0.1743 1.9466,1.9466 2,3.3334 2,51.9275 l 0,49.927401 -2.6349,2.0726 c -2.8259,2.2228 -4.5959,2.4571 -8.0498,1.0656 z" transform="translate(88.14 29.173)"/>
    </svg>
    <svg id="lighthouse_8" viewBox="0 0 144.54 147.464">
      <path d="M46.663 146.85c-.763-.309-.994-1.574-.625-3.42.323-1.612.193-2.95-.289-2.974-8.334-.418-15.637-2.023-18.06-3.97l-2.815-2.26 11.12.647 11.118.647.54-4.76c.297-2.618.45-4.854.34-4.969-1.043-1.08-17.06-2.43-24.361-2.05-7.256.377-9.5.17-10.436-.957-.933-1.125-.891-1.622.195-2.294 2.73-1.687 15.65-2.177 25.317-.96 5.36.675 9.888 1.056 10.065.848.176-.208.597-2.49.934-5.07.732-5.594 1.263-5.32-13.168-6.768-11.206-1.123-15.536-.825-24.492 1.689-5.029 1.41-5.953 1.439-6.735.203-1.487-2.35-1.166-2.692 4.313-4.597 5.742-1.997 23.805-2.533 35.366-1.05l6.116.784.54-4.784c.345-3.063.126-5.039-.608-5.493-2.2-1.359-12.253-2.292-24.664-2.288-11.537 0-12.952.215-18.37 2.75-7.005 3.276-7.251 3.3-7.913.77-.415-1.586.497-2.47 4.633-4.491 9.913-4.843 24.134-5.463 44.69-1.945l3.539.605 1.719-14.346C56.78 58.75 56.79 59.5 54.433 59.5c-2.326 0-3.206-1.144-2.17-2.82.565-.913 5.58-1.156 19.684-.953 16.036.231 18.927.502 18.927 1.773 0 .825-1.055 1.65-2.346 1.832-2.04.289-2.274.744-1.793 3.5.304 1.743 1.529 10.425 2.721 19.294l2.168 16.125 5.125.616c8.154.98 22.061.732 27.826-.495 5.418-1.153 12.08-4.009 17.132-7.341l2.833-1.87-.333 2.888c-.428 3.716-4.947 6.796-14.274 9.73-6.07 1.91-9.198 2.21-22.344 2.143l-15.286-.078.663 4.578c.365 2.518.819 4.853 1.008 5.188.19.336 4.07.911 8.623 1.278 10.447.844 22.664-.79 29.68-3.97 2.97-1.345 5.602-2.247 5.847-2.002.245.245-.348 1.788-1.318 3.43-2.915 4.935-10.046 6.649-27.681 6.652h-14.75l.635 5c.35 2.75.838 5.225 1.087 5.5.248.275 6.45.5 13.78.5 14.13 0 15.18.544 8.105 4.202-2.414 1.249-4.945 1.446-12.33.96l-9.293-.61.591 4.224c.325 2.323.762 4.78.97 5.458.346 1.124-3.265 3.88-4.052 3.093-.184-.185-2.982-19.908-6.217-43.831L81.77 59.998l-9.357-.29c-5.147-.16-9.736.088-10.199.55-.678.68-11.812 81.587-11.833 85.99-.01 1.262-1.493 1.503-3.717.6zM13.374 54.2C8.15 51.89 3.312 49.635 2.624 49.19c-2.09-1.353-1.441-3.698 1-3.614 3.726.128 23.25 9.33 23.25 10.957 0 2.609-3.803 1.951-13.5-2.335zm103.5 3.3c-1.092-1.767.284-2.69 11.01-7.388 11.044-4.837 12.94-5.311 14.05-3.516 1.077 1.744-1.38 3.325-12.06 7.757-10.59 4.396-12.015 4.74-13 3.147zm-64.222-5.122c-1.395-1.395-.544-3.878 1.33-3.878 1.071 0 1.392-1.805 1.392-7.837v-7.837l6.97-4.805 6.97-4.805.28-11.608C69.856.76 70.005 0 71.874 0c1.87 0 2.019.76 2.281 11.685l.282 11.684 6.468 4.616 6.47 4.616v7.95c0 6.472.284 7.949 1.53 7.949 2.09 0 3.09 2.994 1.365 4.086-2.118 1.341-36.257 1.153-37.618-.208zM69.374 43.5v-5h-9v10h9v-5zm14 0v-5h-9v10h9v-5zM76.43 30.425c-2.221-1.609-4.277-2.925-4.568-2.925-.927 0-8.488 5.24-8.49 5.883 0 .34 3.845.47 8.547.292l8.549-.325-4.038-2.925zm-54.556 7.997c-5.794-4.776-6.058-5.213-4.126-6.817 1.166-.968 2.457-.367 6.783 3.16 2.939 2.396 5.343 4.997 5.343 5.782 0 2.763-3.054 1.951-8-2.125zm91.823 2.477c-.338-.88-.176-1.893.36-2.25s3.058-2.375 5.603-4.484c4.601-3.813 6.753-4.09 6.672-.856-.044 1.737-8.882 9.191-10.896 9.191-.619 0-1.4-.72-1.739-1.6zM35.414 25.561c-3.978-6.017-6.938-11.417-6.577-12 1.584-2.564 3.982-.384 10.54 9.583 5.451 8.285 6.754 10.944 5.878 12-.62.746-1.459 1.356-1.867 1.356-.407 0-3.995-4.923-7.974-10.94zm63.03 9.523c-.968-1.166.097-3.396 5.618-11.75 6.478-9.805 10.312-13.228 10.312-9.207 0 1.778-11.124 19.401-13.48 21.357-.891.74-1.6.624-2.45-.4zM53.617 23.25c-1.982-2.474-4.439-12.954-3.302-14.09 1.587-1.587 3.52.904 5.534 7.127 1.66 5.133 1.54 8.213-.32 8.213-.5 0-1.36-.562-1.912-1.25zm33.122-.242c-.705-1.836 2.445-13.272 3.904-14.174.508-.314 1.528.045 2.267.798 1.125 1.146.988 2.411-.846 7.806-2.223 6.535-4.172 8.575-5.325 5.57z"/>
    </svg>
    <svg id="lighthouse_9" viewBox="0 0 321.734 445.845">
      <path d="m 153.9372,593.13561 c -3.696,-3.9566 -3.6894,-7.2599 0.022,-10.9712 3.6253,-3.6252 6.9683,-3.7268 11.0002,-0.3342 2.2988,1.9343 3.0768,3.429 3.0768,5.9112 0,2.4821 -0.778,3.9768 -3.0768,5.9111 -4.1238,3.4699 -7.4432,3.3143 -11.022,-0.5169 z m 28.5534,-1.3488 c -3.614,-3.614 -3.354,-8.6108 0.6222,-11.9566 1.6922,-1.4238 3.6916,-2.5888 4.4431,-2.5888 5.7723,0 34.0199,-11.9326 44.1236,-18.639 7.0224,-4.6613 12.4642,-5.1812 15.4633,-1.4775 2.8063,3.4657 2.4463,8.2234 -0.8568,11.3221 -7.9115,7.4221 -26.1673,16.2904 -46.7102,22.691 -12.0175,3.7443 -13.9175,3.8165 -17.0852,0.6488 z m -109.454597,-8.024 c -2.475,-0.7642 -7.8009,-2.2841 -11.8353,-3.3776 -10.6023,-2.8738 -13.3623,-5.985 -11.1787,-12.6012 1.6746,-5.0741 5.4652,-5.9794 15.014,-3.5859 19.7422,4.9485 23.0193,6.7266 22.9778,12.4676 -0.05,6.9032 -6.1868,9.8111 -14.9778,7.0971 z m -104.365102,-4.594 c -2.0206,-1.5894 -2.6349,-2.9585 -2.6349,-5.8727 0,-7.317 12.0984,-15.6151 27.8427002,-19.0969 4.7615,-1.053 10.4911,-1.9243 12.7324,-1.9362 6.4107998,-0.034 26.6110018,3.9068 29.9194018,5.837 5.7136,3.3334 5.8427,10.3248 0.2674,14.4756 -2.6592,1.9798 -2.8924,1.9898 -8.0966,0.3494 -19.4624018,-6.135 -36.9428018,-4.003 -48.992002,5.9754 -3.4938,2.8934 -7.5751,2.9926 -11.0384,0.2684 z m -38.6094,-19.902 c -5.1473,-5.1473 -3.3159,-10.0073 7.188,-19.0748 18.2057,-15.7161 35.9163,-23.0437 60.9309002,-25.2095 l 12.6442998,-1.0947 0.6669,-9.5732 c 0.3668,-5.2653 1.0982,-13.3982 1.6253,-18.0732 0.5272,-4.675 1.8797,-19.525 3.0057,-33 1.1259,-13.475 2.8881,-34.175 3.916,-46 1.028,-11.825 3.0241,-35 4.4359,-51.5 1.4117,-16.5 2.6782,-30.755 2.8142,-31.6777 0.136002,-0.9227 -4.3652,-7.7751 -10.0027,-15.2276 -11.4862998,-15.1842 -12.4875998,-18.1439 -7.6693998,-22.6704 l 2.5805998,-2.4243 74.506002,0 74.505997,0 2.4134,2.8058 c 4.2098,4.8941 3.382,7.2772 -7.5866,21.8428 -11.4951,15.2648 -10.7756,12.1165 -8.5367,37.3514 0.7807,8.8 2.1153,24.1 2.9656,34 0.8503,9.9 2.2413,25.2 3.0911,34 1.5062,15.5977 2.4752,26.6844 6.4676,74 1.7353,20.5665 2.8754,32.7627 4.6003,49.2115 l 0.5464,5.2116 3.1829,-0.5511 c 18.0734,-3.1292 43.5918,-14.723 59.3661,-26.972 4.4373,-3.4457 6.496,-4.4 9.4915,-4.4 5.1066,0 7.8252,2.7433 7.8252,7.8964 0,4.6644 -2.6086,7.2569 -16.4422,16.3405 -30.5822,20.0814 -65.2434,28.9449 -95.0578,24.308 -10.365,-1.612 -27.2007,-5.7319 -42.999997,-10.5226 -38.8139,-11.7693 -58.0723,-15.922 -77.577702,-16.7284 -27.6612,-1.1435 -47.1044,5.6947 -67.2201,23.6413 -7.577,6.76 -11.8834,7.8836 -15.6767,4.0902 z M 147.6598,535.99141 c -0.3665,-3.9875 -1.5521,-17.375 -2.6346,-29.75 -2.0802,-23.7811 -5.742,-64.9168 -9.0353,-101.5 -1.0893,-12.1 -2.8575,-32.3512 -3.9294,-45.0027 -1.0719,-12.6515 -2.4223,-27.1817 -3.0009,-32.2892 -1.1899,-10.5036 -1.3122,-10.1026 5.987,-19.6259 2.7442,-3.5803 4.9894,-6.751 4.9894,-7.0459 0,-0.295 -24.075,-0.5363 -53.499997,-0.5363 -29.425,0 -53.491,0.3375 -53.48,0.75 0.011,0.4125 2.4859,4.0744 5.5,8.1375 6.1704,8.3182 6.2231,8.6251 4.4777,26.1125 -0.5215,5.225 -1.6408,17.825 -2.4872,28 -0.8465,10.175 -1.9883,22.775 -2.5375,28 -0.5491,5.225 -1.8926,20.1875 -2.9857,33.25 -4.3304,51.7527 -5.9741,70.6639 -6.9611,80.092 -0.5667,5.4132 -0.813802,10.1925 -0.5491,10.6208 0.2647,0.4283 2.6281,1.0365 5.2521,1.3517 2.624,0.3152 8.9313,1.4253 14.0164,2.467 5.0851,1.0417 9.4726,1.667 9.75,1.3895 0.2774,-0.2774 0.5044,-8.2915 0.5044,-17.8092 0,-16.101 0.1673,-17.683 2.4045,-22.7417 10.08,-22.7927 41.550897,-23.4524 53.434797,-1.1201 l 2.6607,5 0.3208,27.1596 0.3208,27.1596 6.6792,1.6155 c 7.3521,1.7783 16.8153,3.2544 22.0743,3.4433 l 3.395,0.122 -0.6663,-7.25 z M 81.442703,425.20801 c -9.8813,-1.9525 -17.6969,-7.7325 -22.1802,-16.4031 -3.5091,-6.7868 -3.7351,-18.6435 -0.4906,-25.7513 5.9409,-13.0154 20.9907,-20.2364 35.1144,-16.8481 23.518197,5.6419 30.595397,36.5151 12.016097,52.4183 -6.259897,5.3582 -16.590597,8.1391 -24.459697,6.5842 z m 12.2468,-18.4752 c 1.3431,-0.8801 3.3189,-3.0381 4.3905,-4.7957 5.209697,-8.5442 -1.3245,-19.6882 -11.544,-19.6882 -10.5776,0 -16.9895,11.4732 -11.23,20.0946 4.3693,6.5405 12.2343,8.4184 18.3835,4.3893 z m -39.3381,-77.4774 c -4.9882,-2.0577 -6.0102,-10.5357 -1.6805,-13.9414 2.5382,-1.9966 3.7836,-2.0726 33.9442,-2.0726 l 31.309397,0 2.7558,2.3704 c 3.5631,3.0649 3.8101,8.619 0.5293,11.9018 -2.1978,2.1991 -2.6292,2.2305 -33.449997,2.4354 -17.173,0.1141 -32.2066,-0.198 -33.4082,-0.6936 z m 44.6846,181.0572 0,-22.9288 -3.3036,-3.5029 c -5.5449,-5.8792 -12.9554,-6.1079 -18.2712,-0.5638 l -2.9252,3.0508 -0.3074,19.849 -0.3075,19.8491 5.8075,1.6584 c 3.1941,0.9121 8.5074,2.5012 11.8074,3.5315 3.3,1.0302 6.3375,1.8984 6.75,1.9293 0.4125,0.031 0.75,-10.2618 0.75,-22.8726 z M -64.891399,277.60651 c -2.5947,-3.2986 -2.6669,-8.35 -0.1579,-11.0431 1.9711,-2.1158 8.8338,-3.638 30.5853,-6.784 11.1987,-1.6197 33.1352002,-5.0025 41.4815002,-6.3968 6.2205998,-1.0392 9.1108998,-0.2751 11.4175998,3.0182 3.6911,5.2698 0.2974,12.1482 -6.5373,13.2499 -6.7109998,1.0818 -30.6649,4.7761 -43.3618,6.6875 -7.15,1.0764 -15.25,2.3682 -18,2.8705 -9.3696,1.7117 -13.1277,1.3215 -15.4274,-1.6022 z m 101.284402,1.6649 c -4.7134,-1.9495 -5.357,-4.4319 -5.357,-20.6645 0,-18.7549 1.6235,-27.9231 6.6642,-37.6345 6.868,-13.232 21.1004,-24.4234 35.3358,-27.7857 7.1751,-1.6947 20.0704,-1.7103 26.999997,-0.033 14.6235,3.5405 28.9031,14.967 35.4419,28.3605 5.5398,11.3475 6.5581,16.919 6.5581,35.8811 0,16.1641 -0.081,16.8281 -2.3704,19.4899 -3.0647,3.563 -8.6188,3.8102 -11.9018,0.5297 -2.0955,-2.0939 -2.2636,-3.3378 -2.8307,-20.95 -0.6535,-20.2918 -1.396,-23.7284 -6.8351,-31.6338 -3.5743,-5.195 -8.5225,-9.2651 -16.062,-13.2113 -4.992397,-2.6131 -6.422797,-2.8788 -15.499997,-2.8788 -9.1117,0 -10.5327,0.2665 -15.9973,3 -7.8121,3.9077 -15.8923,11.9599 -19.2987,19.2317 -2.5673,5.4808 -2.727,6.7264 -3.203,24.994 -0.4568,17.5312 -0.6772,19.3986 -2.501,21.1869 -2.4575,2.41 -6.2897,3.2974 -9.143,2.1174 z m 186.142997,-0.045 c -2.2,-0.4205 -10.075,-1.6828 -17.5,-2.8049 -13.4624,-2.0346 -37.4842,-5.7427 -43.8617,-6.7707 -7.188,-1.1586 -10.3468,-8.3319 -6.0657,-13.7745 2.4977,-3.1752 5.3446,-3.334 19.6122,-1.0936 5.3984,0.8477 15.6652,2.4342 22.8152,3.5255 41.5838,6.347 42.5,6.6495 42.5,14.035 0,6.8989 -5.697,9.1397 -17.5,6.8832 z M 63.393003,255.24061 c -2.7621,-1.1027 -5.357,-4.826 -5.357,-7.6867 0,-3.6365 3.0257,-11.4884 6.2115,-16.1193 3.6569,-5.3157 9.3034,-9.4937 16.4383,-12.1632 4.9804,-1.8635 5.6862,-1.9075 8.3652,-0.5222 5.2468,2.7132 6.5351,8.252 2.9728,12.7807 -1.1067,1.4069 -3.4025,2.8634 -5.1018,3.2366 -4.5332,0.9957 -10.2779,7.2316 -11.8567,12.8706 -1.7385,6.2093 -6.8401,9.5325 -11.6723,7.6035 z m -66.3570018,-17.5938 c -7.9750002,-1.3075 -20.5750002,-3.3009 -28.0000002,-4.4299 -28.4807,-4.3306 -32.0261,-5.0871 -34.0566,-7.2666 -2.5668,-2.7551 -2.4705,-7.7689 0.2148,-11.1827 2.003,-2.5465 2.5599,-2.7073 7.75,-2.2379 3.0755,0.2782 13.0168,1.6804 22.0918,3.1161 9.075,1.4357 22.445,3.5008 29.7111002,4.5892 18.2324998,2.7311 21.5245998,3.5796 23.5388998,6.0671 0.9625,1.1885 1.75,3.436 1.75,4.9944 0,3.1636 -3.4405,7.5333 -6.5,8.2554 -1.1,0.2596 -8.5249998,-0.5977 -16.4999998,-1.9051 z M 158.536,239.25561 c -3.7157,-1.4455 -5.6535,-4.5681 -5.3162,-8.5667 0.5035,-5.969 2.9868,-7.1017 21.8162,-9.9512 9.075,-1.3733 23.925,-3.6644 33,-5.0913 25.9184,-4.0754 26.4029,-4.093 29.4277,-1.0682 1.7457,1.7458 2.5723,3.6557 2.5723,5.9435 0,5.3404 -3.057,7.3988 -13.5228,9.1055 -17.4813,2.8508 -35.0793,5.5593 -42.9772,6.6145 -4.4,0.5878 -10.025,1.4724 -12.5,1.9658 -8.2517,1.6448 -10.485,1.8321 -12.5,1.0481 z m -88.325697,-52.3286 c -1.9367,-2.0615 -2.1743,-3.4203 -2.1743,-12.4349 0,-5.5662 0.48,-11.3872 1.0666,-12.9355 3.5585,-9.3917 16.4968,-14.1305 25.7233,-9.4215 7.842197,4.0025 10.210097,9.2485 10.210097,22.6197 0,8.8355 -0.1902,9.7678 -2.4545,12.0322 -2.611897,2.6119 -6.384097,3.1464 -9.695897,1.374 -3.0234,-1.6181 -4.8496,-7.0635 -4.8496,-14.4607 0,-5.7511 -0.2263,-6.5624 -1.75,-6.2724 -1.4623,0.2783 -1.8322,1.785 -2.25,9.165 -0.4388,7.7508 -0.7889,9.0655 -2.8607,10.7402 -3.2787,2.6504 -8.2672,2.4656 -10.965,-0.4061 z" transform="translate(72.706 -150.292)"/>
    </svg>
  </defs>
</svg>
