<?xml version="1.0" encoding="UTF-8" standalone="no"?>
<svg
   xmlns:dc="http://purl.org/dc/elements/1.1/"
   xmlns:cc="http://creativecommons.org/ns#"
   xmlns:rdf="http://www.w3.org/1999/02/22-rdf-syntax-ns#"
   xmlns:svg="http://www.w3.org/2000/svg"
   xmlns="http://www.w3.org/2000/svg"
   viewBox="0 0 1536.8105 1536.3876"
   width="24"
   height="23.99339">
  <g
     transform="translate(-191.59475,-191.71488)"
     style="fill:none;fill-opacity:1;stroke:#000000;stroke-opacity:1;stroke-width:50;stroke-linecap:round;stroke-linejoin:round;stroke-miterlimit:10">
    <g>
      <path d="m 1106.9,705 0,-216.6" />
      <path d="m 813.1,488.4 0,216.6" />
      <path d="m 901.1,1703.1 309.9,0 L 1106.9,705" />
      <path d="m 813.1,705 -104.1,998.1 97.4,0" />
      <path d="m 813.1,488.4 0,-120.8 c 0,-80.8 66.1,-146.9 146.9,-146.9 40.4,0 77.1,16.5 103.8,43.2 26.6,26.6 43.2,63.4 43.2,103.8 l 0,120.8" />
      <path d="m 911,498 0,207" />
      <path d="m 1009,498 0,207" />
      <path d="m 758,488.4 404,0" />
      <path d="m 758,705 404,0" />
      <path d="M 216.9,216.9 667,488.4" />
      <path d="M 216.9,976.5 667,705" />
      <path d="M 1703.1,976.5 1253,705" />
      <path d="m 304.8,596.7 405,0" />
      <path d="m 1615.2,596.7 -405,0" />
      <path d="M 1703.1,216.9 1253,488.4" />
      <path d="m 874.1,936.2 94.6,0 0,138.3 -94.6,0 z" />
      <path d="m 1012.3,1314 94.6,0 0,138.3 -94.6,0 z" />
      <path d="m 806.4,1564.7 94.6,0 0,138.3 -94.6,0 z" />
    </g>
  </g>
</svg>
