<?xml version="1.0" encoding="UTF-8" standalone="no"?>
<svg
   xmlns:dc="http://purl.org/dc/elements/1.1/"
   xmlns:cc="http://creativecommons.org/ns#"
   xmlns:rdf="http://www.w3.org/1999/02/22-rdf-syntax-ns#"
   xmlns:svg="http://www.w3.org/2000/svg"
   xmlns="http://www.w3.org/2000/svg"
   version="1.1"
   id="svg4407"
   viewBox="0 0 510.32029 511.0576"
   height="24"
   width="23.96537">
  <defs
     id="defs4409" />
  <metadata
     id="metadata4412">
    <rdf:RDF>
      <cc:Work
         rdf:about="">
        <dc:format>image/svg+xml</dc:format>
        <dc:type
           rdf:resource="http://purl.org/dc/dcmitype/StillImage" />
        <dc:title></dc:title>
      </cc:Work>
    </rdf:RDF>
  </metadata>
  <g
     transform="translate(-55.453524,-101.28429)"
     id="layer1">
    <path
       id="path4375"
       d="m 173.75054,610.74201 c -1.8496,-0.9659 -4.0848,-2.9829 -4.967,-4.4821 -1.9143,-3.253 -2.7532,1.0883 12.2273,-63.27414 5.7607,-24.75 14.1129,-60.75 18.5604,-80 4.4476,-19.25 8.7381,-37.7 9.5345,-41 5.7391,-23.7817 31.5077,-135.8509 31.5077,-137.0288 0,-0.8092 -0.6929,-1.4712 -1.5398,-1.4712 -2.9551,0 -9.081,-3.865 -13.1882,-8.3208 -4.9111,-5.3279 -7.272,-12.2627 -7.272,-21.3607 0,-3.4752 -0.2188,-6.3185 -0.4862,-6.3185 -0.2674,0 -34.3832,10.575 -75.813,23.5 -41.4298,12.925 -76.570602,23.5 -78.090701,23.5 -1.7215,0 -3.8664,-1.1024 -5.687,-2.9231 -5.8011,-5.8011 -3.0936,-14.281 5.4238,-16.9878 1.734199,-0.5511 39.296201,-12.2716 83.471101,-26.0456 66.9771,-20.8837 81.3033,-25.0435 86.25,-25.0435 l 5.932,0 0,-10.5 0,-10.5 -6.4425,0 c -5.6247,0 -16.9533,-3.2857 -89.25,-25.8855 -89.899601,-28.1025 -88.307501,-27.4793 -88.307501,-34.5651 0,-4.7786 1.3429,-7.1582 5.1507,-9.1273 2.5919,-1.3403 3.8392,-1.411 7.720299,-0.4375 2.546,0.6386 36.902202,11.2533 76.347102,23.5882 39.4449,12.335 72.1171,22.4272 72.6049,22.4272 0.4878,0 1.1477,-3.11 1.4664,-6.9112 0.736,-8.779 3.203,-13.5903 10.1144,-19.7253 6.4412,-5.7178 75.5347,-49.5957 79.4311,-50.443 1.4658,-0.3187 4.1498,0.01 5.9643,0.7195 5.7675,2.2709 72.0788,44.6558 77.7925,49.7235 6.9759,6.1871 9.5729,11.254 10.1925,19.8865 0.2665,3.7125 0.8811,6.75 1.3658,6.75 0.4846,0 34.8607,-10.6209 76.3913,-23.602 54.0015,-16.879 76.2395,-23.4189 78.0706,-22.9593 7.3503,1.8448 10.0602,11.3631 4.6381,16.291 -2.1281,1.9342 -21.4743,8.3525 -85.5575,28.3848 -72.2967,22.5998 -83.6252,25.8855 -89.25,25.8855 l -6.4425,0 0,10.5 0,10.5 5.893,0 c 4.8944,0 19.5101,4.2433 86.25,25.0405 44.1964,13.7723 81.776,25.4928 83.5102,26.0456 8.5194,2.7156 11.2246,11.19 5.4238,16.9908 -1.8207,1.8207 -3.9655,2.9231 -5.687,2.9231 -1.5201,0 -36.661,-10.575 -78.0907,-23.5 -41.4298,-12.925 -75.5457,-23.5 -75.8131,-23.5 -0.2674,0 -0.4862,2.8433 -0.4862,6.3185 0,9.098 -2.3608,16.0328 -7.272,21.3607 -4.1071,4.4558 -10.233,8.3208 -13.1881,8.3208 -0.8469,0 -1.5399,0.6527 -1.5399,1.4504 0,0.7978 5.2043,23.8603 11.5651,51.25 6.3608,27.3898 17.3595,74.7746 24.4417,105.2996 7.0821,30.525 18.3194,78.9 24.9716,107.5 7.9951,34.37394 11.9078,53.04744 11.543,55.09014 -0.3036,1.6995 -1.7063,4.1745 -3.1171,5.5 l -2.5651,2.4099 -135.1696,0.2562 c -127.2614,0.2412 -135.3663,0.1535 -138.5325,-1.5 z m 183.4798,-47.768 c 32.8571,-16.23154 59.857,-29.62874 59.9997,-29.77154 0.1428,-0.1428 -0.7892,-4.7499 -2.0712,-10.2381 -1.2819,-5.4882 -3.5481,-15.2661 -5.0358,-21.7286 -1.4878,-6.4625 -3.0747,-11.75 -3.5264,-11.75 -1.0761,0 -205.1939,100.97664 -206.4332,102.12204 -0.5464,0.505 19.926,0.878 48.1884,0.878 l 49.1384,0 59.7401,-29.5118 z m 73.3987,28.2618 c 0.034,-2.7234 -8.4021,-37.75004 -9.0919,-37.75004 -0.4053,0 -18.2164,8.74584 -39.5803,19.43504 l -38.8434,19.4351 43.75,0.065 c 34.3602,0.051 43.7534,-0.2033 43.7656,-1.1851 z m -132.5408,-70.64524 c 56.4936,-27.9924 103.0907,-51.2799 103.5491,-51.75 0.6051,-0.6205 -6.9666,-36.1437 -9.2925,-43.5963 -0.1684,-0.5396 -183.108,89.3456 -184.4352,90.6201 -0.1121,0.1076 -2.7211,10.979 -5.7978,24.1586 -7.1795,30.75524 -7.3372,31.46284 -7.0126,31.46284 0.1503,0 46.4953,-22.90284 102.989,-50.89524 z m 2.9403,-73.1029 c 71.9571,-35.678 86.6359,-43.2964 86.2217,-44.75 -0.2746,-0.9636 -2.5791,-10.7383 -5.1212,-21.7217 -2.542,-10.9834 -4.7593,-20.1073 -4.9273,-20.2753 -0.2872,-0.2871 -149.5131,73.3365 -150.3595,74.183 -0.2167,0.2167 -3.0411,11.7944 -6.2764,25.7281 -3.2353,13.9337 -6.1316,26.3465 -6.4364,27.584 -0.3047,1.2375 -0.3893,2.25 -0.188,2.25 0.2014,0 39.3906,-19.3491 87.0871,-42.9981 z m 8.3902,-75.7877 c 34.2679,-17.0453 62.505,-31.1911 62.749,-31.4351 0.5163,-0.5163 -9.159,-42.7172 -9.9826,-43.5407 -0.304,-0.3041 -26.7695,12.5003 -58.8122,28.4541 l -58.2595,29.0068 -5.9145,25.9004 c -3.2531,14.2451 -6.1175,26.6859 -6.3656,27.6461 -0.6,2.3231 0.8285,1.651 76.5854,-36.0316 z m 15.6947,-79.5042 15,-7.6048 -39.2114,-0.053 -39.2115,-0.053 -0.998,3.75 c -1.5518,5.8306 -9.0791,38.4525 -9.0791,39.3469 0,0.7749 43.1565,-20.003 73.5,-35.3869 z m 55.4275,-30.3449 c 1.6977,-2.1583 2.0725,-4.0572 2.0725,-10.5 l 0,-7.8651 -72,0 -72,0 0,7.8651 c 0,6.4428 0.3749,8.3417 2.0726,10.5 l 2.0726,2.6349 67.8548,0 67.8549,0 2.0726,-2.6349 z m -18.4275,-48.8651 0,-10 -51.5,0 -51.5,0 -0.2914,8.9209 c -0.1603,4.9064 -0.06,9.523 0.2221,10.259 0.4215,1.0983 9.7083,1.2918 51.7914,1.0792 l 51.2779,-0.2591 0,-10 z m 20.5,-36.9221 c 0,-6.2382 -0.1122,-6.5173 -3.9206,-9.75 -2.1564,-1.8303 -18.3547,-12.4451 -35.9962,-23.5882 l -32.0756,-20.2604 -31.1111,19.6661 c -17.111,10.8164 -33.3127,21.4065 -36.0037,23.5336 l -4.8928,3.8675 0,6.4767 0,6.4768 72,0 72,0 0,-6.4221 z"
       style="fill:#000000" />
  </g>
</svg>
