<?xml version="1.0" encoding="UTF-8" standalone="no"?>
<svg
   xmlns:dc="http://purl.org/dc/elements/1.1/"
   xmlns:cc="http://creativecommons.org/ns#"
   xmlns:rdf="http://www.w3.org/1999/02/22-rdf-syntax-ns#"
   xmlns:svg="http://www.w3.org/2000/svg"
   xmlns="http://www.w3.org/2000/svg"
   version="1.1"
   id="svg9063"
   viewBox="0 0 350.05583 479.98489"
   height="24"
   width="17.50334">
  <defs
     id="defs9065" />
  <metadata
     id="metadata9068">
    <rdf:RDF>
      <cc:Work
         rdf:about="">
        <dc:format>image/svg+xml</dc:format>
        <dc:type
           rdf:resource="http://purl.org/dc/dcmitype/StillImage" />
        <dc:title></dc:title>
      </cc:Work>
    </rdf:RDF>
  </metadata>
  <g
     transform="translate(-183.76676,-334.66027)"
     id="layer1">
    <path
       id="path4385"
       d="m 188.2136,812.19088 c -3.353,-3.353 -3.3722,-9.3667 -0.042,-13.2397 l 2.4123,-2.8058 32.0877,-0.2898 c 17.6482,-0.1595 32.0877,-0.4648 32.0877,-0.6786 0,-0.2138 8.325,-57.2872 18.5,-126.8297 10.175,-69.5425 18.49999,-126.9496 18.49999,-127.5714 0,-0.7649 -3.2183,-1.1305 -9.95299,-1.1305 -11.0891,0 -14.5088,-1.0585 -16.622,-5.145 -2.1639,-4.1846 -1.7241,-7.4887 1.4732,-11.0671 2.7982,-3.1318 3.1688,-3.2443 10.75,-3.2657 l 7.85179,-0.022 0.2608,-42.25 0.2609,-42.25 -3.29899,0 c -4.635,0 -11.8007,-3.8891 -14.4144,-7.8233 -3.204,-4.8228 -3.8436,-10.7984 -1.723,-16.0983 1.4956,-3.7379 7.3844,-9.2918 41.05679,-38.7215 21.6209,-18.8967 40.7838,-35.2558 42.5843,-36.3535 4.0352,-2.4603 12.5697,-2.6773 16.915,-0.4302 1.6732,0.8652 20.8297,17.1296 42.5699,36.1431 33.1096,28.9568 39.8488,35.2957 41.5049,39.0395 3.7044,8.3745 0.2148,17.7502 -8.1862,21.9942 -2.4496,1.2375 -5.9383,2.25 -7.7528,2.25 l -3.2989,0 0.2608,42.25 0.2609,42.25 7.8708,0.043 c 7.5804,0.042 7.977,0.1623 10.75,3.2658 3.1793,3.5583 3.615,6.8673 1.4542,11.0458 -2.1132,4.0865 -5.5329,5.145 -16.6221,5.145 -6.9696,0 -9.9529,0.353 -9.9529,1.1777 0,1.3014 35.6847,246.3977 36.6219,251.5329 l 0.5859,3.2105 31.9838,0.2895 31.9838,0.2894 2.4123,2.8058 c 3.3848,3.9369 3.2886,9.5452 -0.2241,13.0578 l -2.6363,2.6364 -167.9091,0 -167.90909,0 -2.4546,-2.4545 z m 254.55709,-17.7955 c 0.015,-1.5629 -11.2731,-80.137 -11.5724,-80.5564 -0.1203,-0.1685 -35.3683,17.2696 -78.329,38.7513 -64.3996,32.2019 -78.11029,39.4085 -78.11029,41.0564 0,1.9824 0.6844,1.9987 83.99999,1.9987 66.5272,0 84.0025,-0.26 84.0117,-1.25 z m -89.1663,-63.8976 c 40.51,-20.4312 73.8424,-37.3065 74.072,-37.5006 0.413,-0.3495 -4.5358,-36.8079 -5.5727,-41.0549 -0.5032,-2.0609 -4.9216,-0.011 -68.4199,31.7407 -55.8127,27.9088 -67.9708,34.3456 -68.3814,36.2032 -0.6727,3.043 -6.54339,44.6664 -6.54339,46.3928 0,0.7515 0.2679,1.3664 0.5954,1.3664 0.3274,0 33.73989,-16.7164 74.24999,-37.1476 z m 1.1725,-68.8691 c 35.1902,-17.6092 63.9821,-32.4608 63.9821,-33.0035 0,-2.4979 -6.1207,-41.4339 -6.5866,-41.8998 -0.2896,-0.2896 -26.4881,12.5114 -58.2189,28.4467 l -57.6923,28.9733 -3.572,24.75 c -1.9646,13.6125 -3.1946,24.75 -2.7333,24.75 0.4614,0 29.6308,-14.4075 64.821,-32.0167 z m 1.0269,-69.0057 54.0375,-27.0224 -0.5286,-3.2276 c -0.2907,-1.7752 -0.9898,-6.1526 -1.5537,-9.7276 -0.5638,-3.575 -1.2648,-7.9625 -1.5578,-9.75 l -0.5328,-3.25 -46.8752,0 -46.8752,0 -0.5743,2.75 c -0.3158,1.5125 -2.8342,18.5 -5.5964,37.75 -2.7623,19.25 -5.2482,36.0125 -5.5243,37.25 -0.2761,1.2375 -0.042,2.25 0.5206,2.25 0.5625,0 25.3396,-12.1601 55.0602,-27.0224 z m 56.9552,-114.9863 0,-42.0087 -53.75,0.2587 -53.75,0.2587 -0.2609,41.75 -0.261,41.75 54.011,0 54.0109,0 0,-42.0087 z m -62.0064,27.0744 c -12.397,-3.771 -20.8882,-16.2627 -19.7308,-29.0265 1.2162,-13.413 11.2744,-23.7986 24.8354,-25.6438 10.138,-1.3794 21.7599,4.765 27.1441,14.351 10.2839,18.3095 -3.0479,41.4206 -23.7423,41.1579 -3.3,-0.042 -7.1279,-0.4193 -8.5064,-0.8386 z m 13.6507,-20.4361 c 5.8197,-5.0059 2.1068,-14.6296 -5.6443,-14.6296 -7.751,0 -11.4639,9.6237 -5.6442,14.6296 1.5238,1.3107 4.047,2.3704 5.6442,2.3704 1.5973,0 4.1205,-1.0597 5.6443,-2.3704 z m 64.1891,-68.6054 c -0.4296,-1.2575 -68.7218,-61.0242 -69.7292,-61.0242 -1.0121,0 -69.5099,59.7645 -69.9375,61.0207 -0.2154,0.6329 24.4829,0.9793 69.8333,0.9793 45.1808,0 70.048,-0.3475 69.8334,-0.9758 z M 191.3479,536.56868 c -2.9354,-3.4886 -3.402,-8.3173 -1.1187,-11.5773 0.8086,-1.1544 9.5513,-7.5545 19.4282,-14.2225 14.3135,-9.6631 18.6555,-12.1235 21.395,-12.1235 7.071,0 11.6261,7.3941 8.3958,13.6285 -0.9664,1.8652 -7.848,7.1644 -19.6369,15.1215 -15.4379,10.4201 -18.7261,12.25 -22.0118,12.25 -3.0856,0 -4.3835,-0.6189 -6.4516,-3.0767 z m 306.35889,-9.1733 c -11.7889,-7.9571 -18.6705,-13.2563 -19.6369,-15.1215 -3.2303,-6.2344 1.3248,-13.6285 8.3958,-13.6285 2.7394,0 7.0815,2.4604 21.395,12.1235 9.8769,6.668 18.6196,13.0681 19.4282,14.2225 4.0364,5.7628 -0.5569,14.654 -7.5703,14.654 -3.2857,0 -6.5739,-1.8299 -22.0118,-12.25 z M 189.116,486.65378 c -5.7031,-2.3015 -7.22,-10.8726 -2.7206,-15.372 l 2.6364,-2.6364 22.7288,0 c 21.2604,0 22.894,0.13 25.2868,2.0122 3.1846,2.505 4.3003,7.1526 2.6648,11.101 -2.2289,5.3809 -4.6631,5.8935 -27.6535,5.8234 -11.4398,-0.035 -21.764,-0.4525 -22.9427,-0.9282 z m 292.53109,-0.4793 c -5.508,-3.0542 -6.1559,-11.6 -1.1764,-15.5169 2.3928,-1.8822 4.0264,-2.0122 25.2868,-2.0122 l 22.7288,0 2.6364,2.6364 c 3.5123,3.5123 3.6088,9.1207 0.2247,13.0578 l -2.4117,2.8058 -22.3383,0.2387 c -17.9707,0.1921 -22.8491,-0.044 -24.9503,-1.2096 z M 227.8322,456.96128 c -3.1387,-1.3208 -35.6878,-23.7653 -37.3009,-25.7211 -4.1359,-5.0145 -0.8106,-13.9342 5.6463,-15.1455 4.1259,-0.774 5.617,0.01 25.2288,13.232 16.1427,10.8848 19.3526,13.943 19.3526,18.4378 0,5.508 -8.0622,11.2439 -12.9268,9.1968 z m 255.31499,-0.296 c -3.1044,-1.2543 -6.3882,-5.8909 -6.3882,-9.0199 0,-4.4782 3.2956,-7.4563 22.2716,-20.1266 16.6262,-11.1014 18.3756,-12.031 21.6578,-11.5089 6.9679,1.1084 10.6311,9.9694 6.2984,15.2355 -1.7121,2.081 -31.0163,22.2051 -36.3534,24.965 -3.1125,1.6095 -4.4305,1.6896 -7.4862,0.4549 z"
       style="fill:#000000" />
  </g>
</svg>
