<?xml version="1.0" encoding="UTF-8" standalone="no"?>
<svg
   xmlns:dc="http://purl.org/dc/elements/1.1/"
   xmlns:cc="http://creativecommons.org/ns#"
   xmlns:rdf="http://www.w3.org/1999/02/22-rdf-syntax-ns#"
   xmlns:svg="http://www.w3.org/2000/svg"
   xmlns="http://www.w3.org/2000/svg"
   version="1.1"
   id="svg9645"
   viewBox="0 0 255.99999 479.7265"
   height="24"
   width="12.80729">
  <defs
     id="defs9647" />
  <metadata
     id="metadata9650">
    <rdf:RDF>
      <cc:Work
         rdf:about="">
        <dc:format>image/svg+xml</dc:format>
        <dc:type
           rdf:resource="http://purl.org/dc/dcmitype/StillImage" />
        <dc:title></dc:title>
      </cc:Work>
    </rdf:RDF>
  </metadata>
  <g
     transform="translate(-120.59345,-304.03563)"
     id="layer1">
    <path
       id="path4383"
       d="m 123.51655,780.83916 -2.9231,-2.9231 0,-18.1539 0,-18.1538 2.9231,-2.9231 c 1.6077,-1.6077 3.6327,-2.9231 4.5,-2.9231 0.9676,0 1.5782,-0.8693 1.5802,-2.25 0,-1.2375 0.6698,-12.313 1.4842,-24.6123 1.4535,-21.9488 1.4442,-22.4091 -0.5033,-24.8849 -2.5998,-3.3051 -2.5038,-5.4817 0.3936,-8.9261 2.3387,-2.7802 2.4365,-3.7621 5.9539,-59.7276 3.5568,-56.5926 3.5656,-56.9143 1.6222,-59.3848 -2.5685,-3.2653 -2.4652,-5.4519 0.4196,-8.8876 2.2074,-2.629 2.4529,-4.156 3.5099,-21.8267 0.6251,-10.45 1.3895,-21.3625 1.6985,-24.25 l 0.562,-5.25 -5.1489,0 c -4.3575,0 -5.5981,-0.4493 -8.0719,-2.9231 l -2.9231,-2.9231 0,-26.1538 0,-26.1539 2.9231,-2.923 c 2.4631,-2.4631 3.722,-2.9231 8,-2.9231 l 5.0769,0 0,-24 0,-24 -5.0769,0 c -4.278,0 -5.5369,-0.46 -8,-2.9231 -1.6077,-1.6077 -2.9231,-3.9551 -2.9231,-5.2164 0,-1.6785 9.1828,-11.4946 34.25,-36.6122 18.8375,-18.8754 35.2181,-34.5657 36.4013,-34.8673 1.1832,-0.3015 3.2082,0.053 4.5,0.789 1.2918,0.7355 17.3112,16.4386 35.5987,34.8959 24,24.2227 33.25,34.1886 33.25,35.8232 0,1.2456 -1.3154,3.5801 -2.9231,5.1878 -2.4631,2.4631 -3.722,2.9231 -8,2.9231 l -5.0769,0 0,24 0,24 5.0769,0 c 4.278,0 5.5369,0.46 8,2.9231 l 2.9231,2.923 0,26.1539 0,26.1538 -2.9231,2.9231 c -2.4673,2.4673 -3.719,2.9231 -8.0278,2.9231 l -5.1048,0 0.5719,6.25 c 0.5831,6.3722 14.4838,229.1458 14.4838,232.1184 0,0.8974 0.7096,1.6316 1.5769,1.6316 0.8673,0 2.8923,1.3154 4.5,2.9231 l 2.9231,2.9231 0,18.1538 0,18.1539 -2.9231,2.9231 -2.9231,2.923 -74.1538,0 -74.1539,0 -2.923,-2.923 z m 141.0769,-21.077 0,-8 -64,0 -64,0 0,8 0,8 64,0 64,0 0,-8 z m -8.4897,-30.25 c -0.7259,-8.3183 -2.5103,-36.2749 -2.5103,-39.3296 l 0,-2.4204 -53,0 -53,0 0,2.4204 c 0,3.0547 -1.7844,31.0113 -2.5103,39.3296 l -0.5454,6.25 56.0557,0 56.0557,0 -0.5454,-6.25 z m -4,-64 c -0.7259,-8.3183 -2.5103,-36.2749 -2.5103,-39.3296 l 0,-2.4204 -49,0 -49,0 0,2.4204 c 0,3.0547 -1.7844,31.0113 -2.5103,39.3296 l -0.5454,6.25 52.0557,0 52.0557,0 -0.5454,-6.25 z m -4,-64 c -0.7259,-8.3183 -2.5103,-36.2749 -2.5103,-39.3296 l 0,-2.4204 -45,0 -45,0 0,2.4204 c 0,3.0547 -1.7844,31.0113 -2.5103,39.3296 l -0.5454,6.25 48.0557,0 48.0557,0 -0.5454,-6.25 z m -4,-64 c -0.7259,-8.3183 -2.5103,-36.2749 -2.5103,-39.3296 l 0,-2.4204 -41,0 -41,0 0,2.4204 c 0,3.0547 -1.7844,31.0113 -2.5103,39.3296 l -0.5454,6.25 44.0557,0 44.0557,0 -0.5454,-6.25 z m -83.5103,-73.75 0,-16 -8,0 -8,0 0,16 0,16 8,0 8,0 0,-16 z m 32,0 0,-16 -8,0 -8,0 0,16 0,16 8,0 8,0 0,-16 z m 32,0 0,-16 -8,0 -8,0 0,16 0,16 8,0 8,0 0,-16 z m 32,0 0,-16 -8,0 -8,0 0,16 0,16 8,0 8,0 0,-16 z m -16,-56 0,-24 -40,0 -40,0 0,24 0,24 40,0 40,0 0,-24 z m -44.6848,14.8981 c -4.3849,-1.2687 -9.0556,-6.2205 -10.3293,-10.9506 -4.0951,-15.2078 14.7789,-26.0289 25.9372,-14.8706 8.2974,8.2974 4.5469,22.7543 -6.7144,25.8819 -4.2617,1.1836 -4.6011,1.1813 -8.8935,-0.061 z m 27.432,-77.6454 -22.7472,-22.7472 -22.7473,22.7472 -22.7472,22.7473 45.4945,0 45.4945,0 -22.7473,-22.7473 z m 88.159,112.1051 c -16.6117,-16.6117 -22.9062,-23.539 -22.9062,-25.2089 0,-1.2665 1.3154,-3.6181 2.9231,-5.2258 1.6077,-1.6077 3.9593,-2.9231 5.2258,-2.9231 1.6699,0 8.5972,6.2945 25.2089,22.9061 21.5064,21.5064 22.8636,23.08 22.2111,25.75 -0.3823,1.5642 -1.4541,3.603 -2.382,4.5308 -0.9278,0.9279 -2.9666,1.9997 -4.5307,2.382 -2.6701,0.6525 -4.2437,-0.7048 -25.75,-22.2111 z m 4.0169,-44.2809 c -1.6077,-1.6077 -2.9231,-3.8923 -2.9231,-5.0769 0,-1.1846 1.3154,-3.4692 2.9231,-5.0769 l 2.923,-2.9231 26.1539,0 26.1538,0 2.9231,2.9231 c 1.6077,1.6077 2.9231,3.8923 2.9231,5.0769 0,1.1846 -1.3154,3.4692 -2.9231,5.0769 l -2.9231,2.9231 -26.1538,0 -26.1539,0 -2.923,-2.9231 z m -23.8979,-23.8979 c -1.6639,-1.6638 -3.0252,-4.0614 -3.0252,-5.3279 0,-1.6696 6.262,-8.5648 22.7742,-25.0769 16.5121,-16.5122 23.4073,-22.7742 25.0769,-22.7742 1.2665,0 3.6641,1.3613 5.3279,3.0252 2.4329,2.4328 2.8966,3.5586 2.3687,5.75 -0.8959,3.7187 -43.0538,45.8766 -46.7725,46.7725 -2.1914,0.5279 -3.3172,0.064 -5.75,-2.3687 z"
       style="fill:#000000" />
  </g>
</svg>
