<?xml version="1.0" encoding="UTF-8" standalone="no"?>
<svg
   xmlns:dc="http://purl.org/dc/elements/1.1/"
   xmlns:cc="http://creativecommons.org/ns#"
   xmlns:rdf="http://www.w3.org/1999/02/22-rdf-syntax-ns#"
   xmlns:svg="http://www.w3.org/2000/svg"
   xmlns="http://www.w3.org/2000/svg"
   height="22.49995"
   width="24"
   xml:space="preserve"
   viewBox="0 0 512 479.99899"
   y="0px"
   x="0px"
   id="Layer_1"
   version="1.1"><metadata
     id="metadata4787"><rdf:RDF><cc:Work
         rdf:about=""><dc:format>image/svg+xml</dc:format><dc:type
           rdf:resource="http://purl.org/dc/dcmitype/StillImage" /><dc:title></dc:title></cc:Work></rdf:RDF></metadata><defs
     id="defs4785" /><g
     transform="translate(0,-16.001)"
     id="g4717"><g
       id="g4719"><path
         id="path4721"
         d="m 504.5,481.001 -65.751,0 c -0.188,-15.698 -13.009,-28.412 -28.751,-28.412 l -98.888,0 -3.433,-81.18 c -0.001,-0.02 0.002,-0.041 10e-4,-0.061 l -1.481,-34.941 -0.365,-8.625 c -0.175,-4.139 -3.72,-7.357 -7.81,-7.176 -3.26,0.138 -5.937,2.339 -6.845,5.289 l -69.222,-16.446 1.333,-31.521 66.091,15.707 c 0.23,4.089 3.74,7.266 7.801,7.074 4.139,-0.175 7.352,-3.672 7.176,-7.811 l -0.235,-5.565 c 0,-0.001 0,-0.002 0,-0.002 l -0.062,-1.454 -3.48,-82.271 9.693,0 c 4.143,0 7.5,-3.358 7.5,-7.5 l 0,-32.208 c 0,-4.142 -3.357,-7.5 -7.5,-7.5 l -6.49,0 0,-59.226 c 3.085,-1.211 5.538,-3.706 6.695,-7.022 1.662,-4.764 0.185,-9.87 -3.766,-13.008 L 270.615,48.469 c 3.048,-3.449 4.915,-7.966 4.915,-12.921 0.002,-10.778 -8.759,-19.547 -19.53,-19.547 -10.771,0 -19.532,8.769 -19.532,19.547 0,4.955 1.867,9.472 4.915,12.921 l -36.096,28.674 c -3.95,3.138 -5.428,8.243 -3.766,13.007 1.157,3.316 3.61,5.811 6.695,7.022 l 0,12.772 c 0,4.142 3.357,7.5 7.5,7.5 4.143,0 7.5,-3.358 7.5,-7.5 l 0,-11.957 65.566,0 0,58.409 -65.566,0 0,-10.836 c 0,-4.142 -3.357,-7.5 -7.5,-7.5 -4.143,0 -7.5,3.358 -7.5,7.5 l 0,10.836 -6.49,0 c -4.143,0 -7.5,3.358 -7.5,7.5 l 0,32.208 c 0,4.142 3.357,7.5 7.5,7.5 l 9.693,0 -1.228,29.042 c 0,0.003 -0.001,0.006 -0.001,0.009 l -1.507,35.554 c -0.001,0.029 0.001,0.057 0,0.085 l -1.974,46.672 c 0,0.01 -0.002,0.02 -0.003,0.029 l -1.506,35.566 c -10e-4,0.034 0.001,0.067 0,0.1 l -4.311,101.927 -31.889,0 c -4.143,0 -7.5,3.358 -7.5,7.5 0,4.142 3.357,7.5 7.5,7.5 l 39.079,0 95.842,0 106.077,0 c 7.471,0 13.57,5.985 13.756,13.412 l -337.601,0 c 0.186,-7.427 6.285,-13.412 13.756,-13.412 l 30.424,0 c 4.143,0 7.5,-3.358 7.5,-7.5 0,-4.142 -3.357,-7.5 -7.5,-7.5 l -30.424,0 c -15.742,0 -28.563,12.714 -28.751,28.412 L 7.5,481 c -4.143,0 -7.5,3.358 -7.5,7.5 0,4.142 3.357,7.5 7.5,7.5 l 71.149,0 352.608,0 73.243,0 c 4.143,0 7.5,-3.358 7.5,-7.5 0,-4.142 -3.357,-7.499 -7.5,-7.499 z m -213.106,-139.638 0.876,20.713 -71.818,-17.063 0.859,-20.301 70.083,16.651 z m -67.459,-78.701 0.858,-20.291 63.045,14.983 0.878,20.703 -64.781,-15.395 z m 1.504,-35.554 0.994,-23.499 59.135,0 1.615,38.172 -61.744,-14.673 z M 256,31.001 c 2.499,0 4.532,2.04 4.532,4.547 0,2.474 -1.983,4.485 -4.437,4.537 -0.063,0 -0.126,0 -0.19,0 -2.454,-0.052 -4.438,-2.062 -4.438,-4.537 10e-4,-2.508 2.034,-4.547 4.533,-4.547 z m -33.956,51.987 0,0 33.956,-26.974 33.956,26.974 -67.912,0 z m -12.818,105.615 0,-17.208 0.001,0 6.49,0 80.566,0 6.49,0 0,17.208 -93.547,0 z m 56.799,263.981 -20.05,0 0,-44.159 c 0,-5.528 4.497,-10.026 10.025,-10.026 5.528,0 10.025,4.498 10.025,10.026 l 0,44.159 z m 15,0.004 0,-44.164 c 0,-13.799 -11.227,-25.026 -25.025,-25.026 -13.798,0 -25.025,11.227 -25.025,25.026 l 0,44.164 -15.072,0 3.904,-92.312 73.122,17.373 3.169,74.939 -15.073,0 z" /></g></g><g
     transform="translate(0,-16.001)"
     id="g4723"><g
       id="g4725"><path
         id="path4727"
         d="M 189.803,100.948 38.526,65.28 c -4.021,-0.951 -8.069,1.547 -9.021,5.579 -0.949,4.032 1.548,8.071 5.58,9.021 l 151.276,35.666 c 0.578,0.137 1.157,0.202 1.728,0.202 3.399,0 6.479,-2.328 7.293,-5.78 0.95,-4.032 -1.547,-8.069 -5.579,-9.02 z" /></g></g><g
     transform="translate(0,-16.001)"
     id="g4729"><g
       id="g4731"><path
         id="path4733"
         d="m 195.382,145.534 c -0.951,-4.033 -4.995,-6.528 -9.021,-5.579 L 35.085,175.621 c -4.032,0.95 -6.529,4.989 -5.579,9.021 0.814,3.453 3.893,5.78 7.293,5.78 0.57,0 1.149,-0.065 1.728,-0.202 l 151.276,-35.666 c 4.032,-0.951 6.529,-4.988 5.579,-9.02 z" /></g></g><g
     transform="translate(0,-16.001)"
     id="g4735"><g
       id="g4737"><path
         id="path4739"
         d="m 482.494,70.86 c -0.951,-4.032 -4.995,-6.526 -9.021,-5.579 l -151.276,35.666 c -4.032,0.951 -6.529,4.989 -5.579,9.021 0.815,3.453 3.894,5.78 7.293,5.78 0.57,0 1.149,-0.065 1.728,-0.202 L 476.915,79.881 c 4.032,-0.95 6.529,-4.989 5.579,-9.021 z" /></g></g><g
     transform="translate(0,-16.001)"
     id="g4741"><g
       id="g4743"><path
         id="path4745"
         d="M 476.915,175.623 325.639,139.957 c -4.022,-0.952 -8.069,1.546 -9.021,5.579 -0.95,4.031 1.547,8.069 5.579,9.02 l 151.276,35.666 c 0.578,0.137 1.157,0.202 1.728,0.202 3.399,0 6.479,-2.328 7.293,-5.78 0.95,-4.033 -1.547,-8.072 -5.579,-9.021 z" /></g></g><g
     transform="translate(0,-16.001)"
     id="g4747"><g
       id="g4749"><path
         id="path4751"
         d="m 260.572,102.444 -8.339,0 c -7.606,0 -13.794,6.188 -13.794,13.793 l 0,23.03 c 0,7.606 6.188,13.793 13.794,13.793 l 8.339,0 c 7.606,0 13.794,-6.188 13.794,-13.793 l 0,-23.03 c 0,-7.605 -6.188,-13.793 -13.794,-13.793 z m -1.206,35.616 -5.927,0 0,-20.617 5.927,0 0,20.617 z" /></g></g><g
     transform="translate(0,-16.001)"
     id="g4753" /><g
     transform="translate(0,-16.001)"
     id="g4755" /><g
     transform="translate(0,-16.001)"
     id="g4757" /><g
     transform="translate(0,-16.001)"
     id="g4759" /><g
     transform="translate(0,-16.001)"
     id="g4761" /><g
     transform="translate(0,-16.001)"
     id="g4763" /><g
     transform="translate(0,-16.001)"
     id="g4765" /><g
     transform="translate(0,-16.001)"
     id="g4767" /><g
     transform="translate(0,-16.001)"
     id="g4769" /><g
     transform="translate(0,-16.001)"
     id="g4771" /><g
     transform="translate(0,-16.001)"
     id="g4773" /><g
     transform="translate(0,-16.001)"
     id="g4775" /><g
     transform="translate(0,-16.001)"
     id="g4777" /><g
     transform="translate(0,-16.001)"
     id="g4779" /><g
     transform="translate(0,-16.001)"
     id="g4781" /></svg>