<?xml version="1.0" encoding="UTF-8" standalone="no"?>
<svg
   xmlns:dc="http://purl.org/dc/elements/1.1/"
   xmlns:cc="http://creativecommons.org/ns#"
   xmlns:rdf="http://www.w3.org/1999/02/22-rdf-syntax-ns#"
   xmlns:svg="http://www.w3.org/2000/svg"
   xmlns="http://www.w3.org/2000/svg"
   version="1.1"
   id="svg4989"
   viewBox="0 0 334.7459 447.46122"
   height="24"
   width="17.95440">
  <defs
     id="defs4991" />
  <metadata
     id="metadata4994">
    <rdf:RDF>
      <cc:Work
         rdf:about="">
        <dc:format>image/svg+xml</dc:format>
        <dc:type
           rdf:resource="http://purl.org/dc/dcmitype/StillImage" />
        <dc:title></dc:title>
      </cc:Work>
    </rdf:RDF>
  </metadata>
  <g
     transform="translate(-221.15043,-133.59505)"
     id="layer1">
    <path
       id="path4369"
       d="m 223.87283,578.71458 c -1.9453,-1.6732 -2.7224,-3.2885 -2.7224,-5.6583 0,-2.3697 0.7771,-3.985 2.7224,-5.6582 2.5559,-2.1985 3.5297,-2.3424 15.9167,-2.3517 l 13.1942,-0.01 9.253,-8.9351 c 9.4965,-9.1702 24.5549,-19.9288 36.4933,-26.073 3.7105,-1.9096 6.748,-3.9878 6.75,-4.6182 0.01,-2.0275 21.9353,-249.73784 22.3958,-252.98624 0.4146,-2.92456 0.209,-3.1706 -3.098,-3.70725 -4.9937,-0.81034 -7.2941,-3.22621 -7.2941,-7.66027 0,-5.06147 2.6389,-7.22258 9.5155,-7.79284 l 5.4845,-0.45482 0,-31.75234 0,-31.75234 -5.4845,-0.45482 c -6.8766,-0.57026 -9.5155,-2.73137 -9.5155,-7.79284 0,-5.20878 2.6451,-7.27437 9.9961,-7.80609 l 5.921,-0.4283 1.6009,-4.81966 c 9.8192,-29.56281 50.5691,-43.55074 81.454,-27.96011 12.3913,6.2551 21.6979,16.48268 25.549,28.0773 l 1.6398,4.93686 5.4965,0 c 4.7418,0 5.8979,0.40138 8.4196,2.92308 1.6077,1.60769 2.9231,3.8923 2.9231,5.07692 0,1.18461 -1.3154,3.46923 -2.9231,5.07692 -2.463,2.4631 -3.7219,2.92308 -8,2.92308 l -5.0769,0 0,32 0,32 5.0769,0 c 4.2781,0 5.537,0.45998 8,2.92308 1.6077,1.60769 2.9231,3.8923 2.9231,5.07692 0,3.00183 -5.2625,8 -8.4231,8 -2.0759,0 -2.5769,0.48174 -2.5769,2.47797 0,1.36289 4.95,58.80902 11,127.65807 6.05,68.84906 11,125.70052 11,126.33652 0,0.636 3.7125,3.0964 8.25,5.4675 12.7633,6.6695 25.3324,15.7177 35.1586,25.3099 l 8.9635,8.75 13.2582,0 c 12.4614,0 13.4218,0.1408 15.9806,2.3418 3.7356,3.2132 3.7356,8.1033 0,11.3165 l -2.7224,2.3417 -161.8885,0 -161.8885,0 -2.7224,-2.3417 z m 274.1109,-17.2888 c -14.1732,-12.5693 -38.1191,-24.4699 -61.2243,-30.4273 -51.4135,-13.2564 -110.1652,-3.9626 -148.7757,23.5346 -4.4,3.1335 -9.1148,6.7832 -10.4773,8.1103 l -2.4772,2.4129 113.4773,-0.042 113.4772,-0.042 -4,-3.5473 z m -167,-43.8906 c 10.5652,-3.2898 26.7745,-6.3782 37.4555,-7.1363 l 8.616,-0.6116 35.7911,-35.1155 35.7912,-35.11546 -2.6329,-28.97265 c -1.4481,-15.93496 -2.7368,-29.07657 -2.8638,-29.20358 -0.127,-0.12701 -26.9893,25.70995 -59.694,57.41546 -51.8687,50.28403 -59.5431,58.10073 -60.0899,61.20353 -1.2181,6.9126 -1.9998,20.057 -1.1919,20.0422 0.4503,-0.01 4.4187,-1.136 8.8187,-2.5061 z m 124.5,1.5954 c 0,-1.8668 -5.0615,-57.60084 -5.3042,-58.4066 -0.1378,-0.45779 -11.7133,10.43258 -25.7232,24.2008 l -25.4726,25.0332 4.5,0.068 c 10.5362,0.158 38.3371,5.4227 47,8.9004 3.2244,1.2945 5,1.3671 5,0.2047 z m -68,-105.56745 c 28.325,-27.39681 52.0937,-50.35341 52.8194,-51.01467 1.0905,-0.9937 0.9212,-5.82478 -0.9754,-27.84721 -1.2622,-14.65471 -2.5309,-26.64194 -2.8194,-26.63828 -0.4839,0.006 -55.5986,52.9083 -90.3953,86.76651 l -14.8707,14.46965 -2.859,31.6286 c -1.5725,17.39572 -2.8682,31.83825 -2.8793,32.09445 -0.024,0.5427 -3.8462,4.2098 61.9797,-59.45905 z m 0,-80.06229 47.5,-45.83986 -0.2558,-4.05233 c -0.1408,-2.22878 -0.5107,-6.41483 -0.822,-9.30233 l -0.5661,-5.25 -19.178,0.0127 -19.1781,0.0127 -21,19.60223 c -11.55,10.78122 -24.1698,22.66271 -28.0441,26.40331 l -7.0442,6.80109 -2.2597,26.334 c -1.2428,14.48367 -2.5191,28.80897 -2.8361,31.83397 l -0.5765,5.5 3.3803,-3.10781 c 1.8592,-1.70929 24.7553,-23.73574 50.8803,-48.94767 z m -23.7603,-56.19452 8.7134,-8.25 -14.3474,0 -14.3473,0 -0.6035,5.75 c -0.3319,3.1625 -0.901,9.8 -1.2645,14.75 l -0.661,9 6.8984,-6.5 c 3.7942,-3.575 10.8195,-10.2125 15.6119,-14.75 z m 64.7603,-56.25 0,-32 -40,0 -40,0 0,32 0,32 40,0 40,0 0,-32 z m -47,22.46342 c -17.9814,-5.58335 -22.2126,-29.69085 -7.2184,-41.12732 6.0247,-4.59522 13.3264,-6.03102 20.2971,-3.99123 11.0293,3.22747 17.3473,11.47858 17.3473,22.65513 0,10.97512 -6.2849,19.37448 -16.8575,22.52872 -5.9188,1.76585 -7.6988,1.75728 -13.5685,-0.0653 z m 12.6856,-16.63773 c 3.0531,-2.86825 3.1197,-8.33963 0.1401,-11.51124 -3.1546,-3.35795 -8.9847,-3.19902 -11.7531,0.32041 -4.3642,5.54822 -1.0389,13.36514 5.6856,13.36514 2.3332,0 4.4327,-0.77016 5.9274,-2.17431 z m 33.3144,-54.62991 c 0,-1.76849 -5.8683,-9.88757 -9.3524,-12.93964 -15.6647,-13.7219 -43.6304,-13.7219 -59.2951,0 -3.4842,3.05207 -9.3525,11.17115 -9.3525,12.93964 0,0.44232 17.55,0.80422 39,0.80422 21.45,0 39,-0.3619 39,-0.80422 z m -154,95.51021 c -3.4222,-1.73096 -5.2824,-5.83295 -4.0798,-8.99617 1.1254,-2.95985 3.4192,-4.61926 16.724,-12.0985 10.9263,-6.14218 13.8904,-6.5416 16.8792,-2.27455 2.0062,2.86431 1.8637,8.01557 -0.2734,9.88 -2.3908,2.0858 -24.5549,14.78683 -25.7719,14.76849 -0.538,-0.008 -2.1031,-0.58378 -3.4781,-1.27927 z m 214,-5.31229 c -14.2133,-8.23048 -15,-8.909 -15,-12.9379 0,-1.77883 0.7875,-4.1649 1.75,-5.30237 3.5007,-4.13714 5.9581,-3.68429 18.25,3.36314 6.325,3.62638 12.3625,7.44367 13.4167,8.48287 4.008,3.95113 1.4846,11.07238 -4.4167,12.464 -1.9055,0.44937 -5.2344,-0.99384 -14,-6.06974 z m -223.6109,-35.73544 c -1.9453,-1.67325 -2.7224,-3.28848 -2.7224,-5.65826 0,-2.36978 0.7771,-3.98501 2.7224,-5.65826 2.5723,-2.21256 3.4885,-2.34174 16.6109,-2.34174 13.1223,0 14.0386,0.12918 16.6109,2.34174 1.9453,1.67325 2.7225,3.28848 2.7225,5.65826 0,2.36978 -0.7772,3.98501 -2.7225,5.65826 -2.5723,2.21256 -3.4886,2.34174 -16.6109,2.34174 -13.1224,0 -14.0386,-0.12918 -16.6109,-2.34174 z m 216,0 c -1.9453,-1.67325 -2.7224,-3.28848 -2.7224,-5.65826 0,-2.36978 0.7771,-3.98501 2.7224,-5.65826 2.5723,-2.21256 3.4886,-2.34174 16.6109,-2.34174 13.1224,0 14.0387,0.12918 16.6109,2.34174 3.7356,3.21318 3.7356,8.10334 0,11.31652 -2.5722,2.21256 -3.4885,2.34174 -16.6109,2.34174 -13.1223,0 -14.0386,-0.12918 -16.6109,-2.34174 z m -195.3891,-32.19452 c -6.325,-3.61673 -12.3625,-7.42564 -13.4167,-8.46425 -2.3901,-2.35486 -2.4792,-7.35208 -0.1764,-9.89665 3.7065,-4.09558 6.1097,-3.64403 18.4792,3.47218 14.3018,8.22778 15.1139,8.92469 15.1139,12.96918 0,1.77883 -0.7875,4.1649 -1.75,5.30237 -3.4729,4.10433 -5.9638,3.64263 -18.25,-3.38283 z m 192.3154,5.52928 c -4.3029,-1.7337 -5.8939,-9.30588 -2.5654,-12.20979 0.9625,-0.83971 6.9763,-4.5334 13.3639,-8.20821 12.3696,-7.11621 14.7727,-7.56776 18.4792,-3.47218 2.3027,2.54448 2.2137,7.5416 -0.1764,9.89772 -2.3171,2.28418 -24.3819,15.02552 -25.8655,14.93605 -0.5782,-0.0349 -2.0343,-0.45948 -3.2358,-0.94359 z"
       style="fill:#000000" />
  </g>
</svg>
