<?xml version="1.0" encoding="UTF-8" standalone="no"?>
<svg
   xmlns:dc="http://purl.org/dc/elements/1.1/"
   xmlns:cc="http://creativecommons.org/ns#"
   xmlns:rdf="http://www.w3.org/1999/02/22-rdf-syntax-ns#"
   xmlns:svg="http://www.w3.org/2000/svg"
   xmlns="http://www.w3.org/2000/svg"
   version="1.1"
   id="svg5571"
   viewBox="0 0 167.9087 255.99999"
   height="24"
   width="15.74144">
  <defs
     id="defs5573" />
  <metadata
     id="metadata5576">
    <rdf:RDF>
      <cc:Work
         rdf:about="">
        <dc:format>image/svg+xml</dc:format>
        <dc:type
           rdf:resource="http://purl.org/dc/dcmitype/StillImage" />
        <dc:title></dc:title>
      </cc:Work>
    </rdf:RDF>
  </metadata>
  <g
     transform="translate(197.74352,-55.566529)"
     id="layer1">
    <path
       id="path4373"
       d="m -196.17212,309.9951 c -0.8643,-0.86428 -1.5714,-1.95714 -1.5714,-2.42857 0,-0.47143 0.7071,-1.56429 1.5714,-2.42857 1.2084,-1.20842 3.7699,-1.57143 11.0886,-1.57143 l 9.5173,0 5.1398,-4.49619 c 2.8269,-2.4729 8.1385,-6.07195 11.8035,-7.99788 3.6651,-1.92593 6.9373,-4.21445 7.2716,-5.0856 0.3342,-0.87115 0.6078,-3.74997 0.6078,-6.39738 l 0,-4.81348 33.5576,-32.71373 c 18.456802,-17.99254 33.720002,-32.5514 33.918402,-32.35302 0.1984,0.19839 1.7659,16.78494 3.4833,36.85899 1.7174,20.07406 3.3319,37.48771 3.5878,38.69701 0.3157,1.49207 2.6395,3.3413 7.2306,5.75381 3.7209,1.9553 9.0782,5.57838 11.9051,8.05128 l 5.1399,4.49619 9.5172,0 c 7.3187,0 9.8802,0.36301 11.0886,1.57143 1.9736,1.97358 1.9736,2.88356 0,4.85714 -1.4026,1.40266 -10.2554,1.57143 -82.428502,1.57143 -72.1732,0 -81.026,-0.16877 -82.4286,-1.57143 z m 47.4271,-51.06173 c -8e-4,-1.02676 0.5283,-7.85778 1.1758,-15.18003 l 1.1772,-13.3132 30.0741,-29.1868 30.074102,-29.18681 0.6828,8 c 0.3756,4.4 0.9132,10.10584 1.1947,12.67965 l 0.5119,4.67965 -32.444602,31.68719 c -21.0403,20.54912 -32.4451,31.031 -32.446,29.82035 z m 4,-44.50114 c -8e-4,-1.30114 0.5333,-8.2157 1.1868,-15.3657 l 1.1882,-13 18.4378,-17.25 18.4378,-17.25 8.875402,0 8.8755,0 0,4.87557 0,4.87557 -28.500002,27.74013 c -22.8265,22.21789 -28.5003,27.26919 -28.5015,25.37443 z m 4.451,-51.9098 c 0.4051,-5.75074 0.861,-10.58479 1.0132,-10.74232 0.1522,-0.15753 4.858,-0.15753 10.4573,0 l 10.1806,0.28642 -11.1938,10.4559 -11.1937,10.4559 0.7364,-10.4559 z m -31.9281,-19.57728 c -2.6639,-2.66389 -1.3757,-4.5833 5.8694,-8.74532 7.4274,-4.26677 10.1092,-4.1549 10.1092,0.42169 0,1.82151 -1.4338,3.17178 -6.5,6.12144 -7.5075,4.371 -7.347,4.33371 -9.4786,2.20219 z m 107.228602,-2.4395 c -6.9732,-4.18385 -8.2622,-6.43929 -5.1541,-9.01879 2.585,-2.14531 16.4041,5.80923 16.4041,9.4425 0,0.74465 -3.0445,3.63796 -3.8215,3.6317 -0.3732,-0.003 -3.716,-1.82794 -7.4285,-4.05541 z m -79.178602,1.48945 c -0.8643,-0.86428 -1.5714,-1.95714 -1.5714,-2.42857 0,-1.70494 3.1967,-4 5.5714,-4 l 2.4286,0 0,-16 0,-16 24,0 24.000002,0 0,16 0,16 2.4285,0 c 2.3748,0 5.5715,2.29506 5.5715,4 0,0.47143 -0.7072,1.56429 -1.5715,2.42857 -1.3559,1.35597 -5.5281,1.57143 -30.428502,1.57143 -24.9005,0 -29.0727,-0.21546 -30.4286,-1.57143 z m 35.974,-15.88312 c 7.449,-7.449 -3.5509,-18.58619 -11.231,-11.37114 -5.0049,4.70188 -1.2529,13.82569 5.6856,13.82569 1.9483,0 3.9982,-0.90731 5.5454,-2.45455 z m -72.9349,-4.11789 c -0.3318,-0.86484 -0.1392,-2.43984 0.4282,-3.5 0.8856,-1.65463 2.1544,-1.92756 8.9613,-1.92756 6.8068,0 8.0757,0.27293 8.9612,1.92756 2.1903,4.09259 0.4592,5.07244 -8.9612,5.07244 -7.0673,0 -8.9041,-0.30762 -9.3895,-1.57244 z m 116.000002,0 c -0.3318,-0.86484 -0.1392,-2.43984 0.4282,-3.5 0.8759,-1.63658 2.1477,-1.92756 8.425,-1.92756 7.7489,0 11.2707,1.64361 10.0938,4.71073 -0.3067,0.79906 -0.5575,1.64104 -0.5575,1.87106 0,0.23001 -4.0019,0.41821 -8.8931,0.41821 -7.1645,0 -9.0102,-0.30563 -9.4964,-1.57244 z M -166.00842,106.79008 c -7.1809,-3.90116 -8.3039,-5.29239 -6.6964,-8.295991 1.4298,-2.67161 2.5439,-2.46542 9.9657,1.844361 6.9162,4.01617 8.7659,7.21023 5.2618,9.08561 -1.4397,0.7705 -3.3503,0.18063 -8.5311,-2.63398 z m 95.821402,2.44148 c -2.9525,-2.15891 -1.3814,-4.7994 5.2787,-8.87185 6.3664,-3.892891 9.3906,-4.252971 10.541,-1.255111 0.9981,2.600941 -0.3191,4.010191 -7.244,7.750501 -5.8315,3.14974 -7.0546,3.48868 -8.5757,2.37646 z M -144.17212,93.995099 c -0.8643,-0.86428 -1.5714,-1.95714 -1.5714,-2.42857 0,-1.80907 3.2645,-4 5.9601,-4 2.41,0 2.9091,-0.48953 3.4526,-3.3865 0.9547,-5.08929 7.7701,-12.24104 13.6582,-14.3323 l 4.9291,-1.75064 0,-4.69385 c 0,-4.40736 1.7504,-7.83671 4,-7.83671 2.2496,0 4,3.42935 4,7.83671 l 0,4.69385 4.929,1.75064 c 5.888102,2.09126 12.703502,9.24301 13.658202,14.3323 0.5435,2.89697 1.0426,3.3865 3.4526,3.3865 2.6956,0 5.9602,2.19093 5.9602,4 0,0.47143 -0.7072,1.56429 -1.5715,2.42857 -1.3559,1.35597 -5.5281,1.57143 -30.428502,1.57143 -24.9005,0 -29.0727,-0.21546 -30.4286,-1.57143 z"
       style="fill:#000000" />
  </g>
</svg>
