<?xml version="1.0" encoding="UTF-8" standalone="no"?>
<svg
   xmlns:dc="http://purl.org/dc/elements/1.1/"
   xmlns:cc="http://creativecommons.org/ns#"
   xmlns:rdf="http://www.w3.org/1999/02/22-rdf-syntax-ns#"
   xmlns:svg="http://www.w3.org/2000/svg"
   xmlns="http://www.w3.org/2000/svg"
   version="1.1"
   id="svg6153"
   viewBox="0 0 431.7707 463.1658"
   height="24"
   width="22.37319">
  <defs
     id="defs6155" />
  <metadata
     id="metadata6158">
    <rdf:RDF>
      <cc:Work
         rdf:about="">
        <dc:format>image/svg+xml</dc:format>
        <dc:type
           rdf:resource="http://purl.org/dc/dcmitype/StillImage" />
        <dc:title></dc:title>
      </cc:Work>
    </rdf:RDF>
  </metadata>
  <g
     transform="translate(-152.64804,-180.07454)"
     id="layer1">
    <path
       id="path4371"
       d="m 293.72704,642.52148 c -3.8112,-1.55244 -5.4733,-5.22926 -4.8133,-10.64807 0.325,-2.66874 5.5042,-67.62726 11.5093,-144.35226 6.0051,-76.725 11.1522,-141.4125 11.4379,-143.75 l 0.5196,-4.25 -9.0578,0 c -8.7208,0 -9.1689,-0.11105 -12.0429,-2.98508 l -2.9851,-2.98507 0.312,-18.48961 c 0.3927,-23.26992 0.1461,-22.86766 14.3382,-23.38677 l 9.4738,-0.34653 0,-23.77964 0,-23.77964 -5.5594,-0.46103 c -3.8817,-0.3219 -6.1953,-1.09694 -7.6667,-2.56827 -2.8937,-2.89378 -2.7538,-7.71688 0.3095,-10.6668 4.0272,-3.87824 64.2513,-48.7261 66.6666,-49.64554 1.2706,-0.48367 3.2719,-0.46801 4.5975,0.036 2.6922,1.0236 65.4227,47.86583 67.5692,50.45545 2.0866,2.51734 1.7442,7.38609 -0.6906,9.8209 -1.4713,1.47134 -3.7849,2.24637 -7.6667,2.56828 l -5.5594,0.46103 0,23.77964 0,23.77964 9.4739,0.34653 c 14.1921,0.51911 13.9455,0.11685 14.3381,23.38677 l 0.312,18.48961 -2.9851,2.98507 c -2.874,2.87403 -3.322,2.98508 -12.0428,2.98508 l -9.0578,0 0.5195,4.25 c 0.2858,2.3375 5.4354,67.025 11.4437,143.75 6.0083,76.725 11.1914,141.80772 11.5181,144.62826 0.5198,4.48834 0.2857,5.48662 -1.876,8 l -2.4698,2.87174 -73.8369,0.19654 c -41.5265,0.11054 -74.7959,-0.19412 -76.0286,-0.69621 z m 138.1423,-19.25033 c -0.2811,-2.3375 -5.2064,-64.325 -10.945,-137.75 -5.7386,-73.425 -10.7108,-136.3125 -11.0493,-139.75 l -0.6155,-6.25 -40.8408,0 -40.8408,0 -0.617,6.25 c -0.3394,3.4375 -5.3109,66.325 -11.0477,139.75 -5.7369,73.425 -10.6615,135.4125 -10.9435,137.75 l -0.5127,4.25 63.9617,0 63.9618,0 -0.5112,-4.25 z m -98.4309,-29.04159 c -4.4143,-2.22084 -5.0926,-5.04104 -4.7945,-19.93349 0.2441,-12.1929 0.4981,-13.94408 2.2748,-15.68695 3.3803,-3.31583 6.8272,-3.57076 10.1093,-0.74764 l 2.8907,2.4865 0,15.05881 c 0,13.75105 -0.1737,15.22583 -2,16.98208 -2.8007,2.69325 -5.5846,3.2975 -8.4803,1.84069 z m 56.2886,-135.72733 c -4.7481,-1.89235 -5.4873,-4.75668 -5.1349,-19.89754 0.2998,-12.88098 0.5069,-14.21371 2.5211,-16.22528 2.8761,-2.87238 7.7372,-2.87107 10.6111,0.003 2.0635,2.06347 2.1944,3.08638 2.1944,17.13889 0,13.63669 -0.175,15.11275 -2,16.86772 -2.5726,2.47389 -5.4345,3.21224 -8.1917,2.11336 z m 42.6917,-142.98108 0,-8 -64,0 -64,0 0,8 0,8 64,0 64,0 0,-8 z m -24,-31.90347 0,-7.90347 -9.4738,-0.34653 c -10.8274,-0.39604 -13.8595,-2.11265 -13.8595,-7.84653 0,-5.73388 3.0321,-7.45049 13.8595,-7.84653 l 9.4738,-0.34653 0,-7.90347 0,-7.90347 -40,0 -40,0 0,7.90347 0,7.90347 9.4739,0.34653 c 10.8274,0.39604 13.8595,2.11265 13.8595,7.84653 0,5.73388 -3.0321,7.45049 -13.8595,7.84653 l -9.4739,0.34653 0,7.90347 0,7.90347 40,0 40,0 0,-7.90347 z m -0.55,-56.94565 c -2.4409,-2.18169 -37.8326,-28.36048 -38.8895,-28.76605 -0.6596,-0.25309 -4.093,1.74835 -7.6298,4.44764 -3.5369,2.6993 -12.4402,9.46625 -19.7852,15.03767 l -13.3546,10.12986 40.3046,0 c 22.1744,0 39.8772,-0.38196 39.3545,-0.84912 z m -252.629,109.82395 c -2.4387,-2.43865 -2.8962,-3.55345 -2.36,-5.75 0.3658,-1.49866 1.4242,-3.48685 2.3521,-4.4182 2.212,-2.22046 105.8445,-42.08075 109.4925,-42.11422 3.2515,-0.0298 6.2933,2.67942 7.2044,6.41686 1.3633,5.59168 -0.5511,6.53836 -57.3889,28.37911 -29.3584,11.28139 -54.0306,20.51162 -54.827,20.51162 -0.7963,0 -2.8093,-1.36133 -4.4731,-3.02517 z m 366.679,-17.55452 c -56.4192,-21.76148 -58.3705,-22.7305 -57.01,-28.31104 0.9112,-3.73744 3.953,-6.4467 7.2045,-6.41686 3.6479,0.0335 107.2804,39.89376 109.4925,42.11422 0.9278,0.93135 1.9862,2.91954 2.3521,4.4182 0.5362,2.19655 0.079,3.31135 -2.3601,5.75 -1.6638,1.66384 -3.8472,2.99433 -4.8521,2.95664 -1.0048,-0.0377 -25.6769,-9.26771 -54.8269,-20.51116 z m -312,-88 c -56.4193,-21.76148 -58.3706,-22.7305 -57.01,-28.31104 0.9111,-3.73744 3.9529,-6.44669 7.2044,-6.41686 3.648,0.0335 107.2805,39.89376 109.4926,42.11422 0.9278,0.93135 1.9862,2.91954 2.352,4.4182 0.5362,2.19655 0.079,3.31135 -2.36,5.75 -1.6638,1.66384 -3.8473,2.99433 -4.8521,2.95664 -1.0048,-0.0377 -25.6769,-9.26771 -54.8269,-20.51116 z m 259.857,19.57879 c -2.558,-1.02116 -5.357,-4.76526 -5.357,-7.16584 0,-4.75735 3.6849,-6.49679 57.879,-27.32163 29.3584,-11.2814 54.0305,-20.51163 54.8269,-20.51163 2.1547,0 7.2941,5.5433 7.2941,7.86731 0,5.05039 -3.1669,6.56317 -56.5,26.98871 -28.6,10.95326 -52.9,20.15881 -54,20.45679 -1.1,0.29798 -2.9643,0.15681 -4.143,-0.31371 z"
       style="fill:#000000" />
  </g>
</svg>
