<?xml version="1.0" encoding="UTF-8" standalone="no"?>
<svg
   xmlns:dc="http://purl.org/dc/elements/1.1/"
   xmlns:cc="http://creativecommons.org/ns#"
   xmlns:rdf="http://www.w3.org/1999/02/22-rdf-syntax-ns#"
   xmlns:svg="http://www.w3.org/2000/svg"
   xmlns="http://www.w3.org/2000/svg"
   version="1.1"
   id="svg6735"
   viewBox="0 0 270.63154 342.00577"
   height="24"
   width="18.99136">
  <defs
     id="defs6737" />
  <metadata
     id="metadata6740">
    <rdf:RDF>
      <cc:Work
         rdf:about="">
        <dc:format>image/svg+xml</dc:format>
        <dc:type
           rdf:resource="http://purl.org/dc/dcmitype/StillImage" />
        <dc:title></dc:title>
      </cc:Work>
    </rdf:RDF>
  </metadata>
  <g
     transform="translate(-245.51914,-268.84555)"
     id="layer1">
    <path
       id="path4387"
       d="m 311.85039,610.31848 c -0.1407,-0.1407 -8.0087,-0.3245 -17.4845,-0.4085 -16.3031,-0.1445 -17.3082,-0.266 -18.7062,-2.262 -1.8999,-2.7124 -1.8873,-6.0792 0.029,-7.6693 2.2598,-1.8754 61.2758,-1.966 62.4317,-0.096 0.6772,1.0958 0.8994,1.0895 1.2746,-0.036 0.6055,-1.8167 8.9421,-1.8097 11.134,0.01 1.9724,1.637 2.1819,6.7422 0.3517,8.5724 -1.1188,1.1188 -38.0144,2.9055 -39.0299,1.89 z m 126.4116,-0.1036 c -25.7691,-0.2958 -26.0797,-0.3711 -26.0797,-6.3184 0,-5.643 0.1463,-5.6643 38.0964,-5.5327 37.9788,0.1317 37.9036,0.1196 37.9036,6.0734 0,5.7881 -4.4226,6.3 -49.9203,5.7777 z m -74.7504,-1.0065 c -2.4496,-1.5582 -2.6926,-6.2091 -0.4491,-8.5971 5.4696,-5.8222 40.1198,-2.382 40.1198,3.9832 0,4.6953 -33.4305,8.5834 -39.6707,4.6139 z m -115.1068,-22.7814 c -8.9504,-6.2691 4.5202,-12.9314 18.5275,-9.1634 1.2375,0.3329 2.25,0.2689 2.25,-0.1423 0,-0.4111 7.2,-0.8633 16,-1.0048 9.6803,-0.1557 16,0.12 16,0.698 0,0.5254 0.6696,1.2122 1.488,1.5263 0.8599,0.3299 1.3875,0.059 1.25,-0.6431 -0.3093,-1.5777 13.8445,-2.2034 17.5942,-0.7778 3.1027,1.1797 3.7992,6.7895 1.1696,9.4192 -1.9356,1.9356 -39.5165,2.2166 -40.7331,0.3046 -0.5428,-0.8531 -0.7421,-0.8292 -0.7534,0.09 -0.025,2.0272 -29.8592,1.7481 -32.7928,-0.3067 z m 87.6398,0.3442 c -2.7501,-2.1823 -3.1744,-6.4754 -0.8679,-8.7819 2.5764,-2.5764 90.0539,-3.1532 93.5228,-0.6166 2.0905,1.5286 2.4619,7.0314 0.6004,8.8944 -1.8284,1.8297 -90.9776,2.3116 -93.2553,0.5041 z m 104.672,-0.396 c -2.1184,-2.1184 -1.9205,-6.0053 0.4251,-8.3509 2.7219,-2.7219 68.9768,-3.1744 72.799,-0.4972 2.7678,1.9386 2.9746,6.4833 0.401,8.8124 -2.6769,2.4225 -71.205,2.4558 -73.6251,0.036 z m -132.7954,-21.398 c -4.3716,-0.793 -4.2706,-0.7117 -5.0767,-4.0818 -1.1582,-4.8416 8.3932,-10.0543 9.6303,-5.2558 0.4262,1.653 0.4875,1.6628 0.5915,0.094 0.089,-1.3474 1.0124,-1.75 4.0127,-1.75 4.4011,0 3.7442,2.6136 7.6658,-30.5 0.9119,-7.7 1.8655,-14.675 2.1191,-15.5 0.2536,-0.825 0.6456,-4.5706 0.871,-8.3236 0.2255,-3.753 0.8239,-8.478 1.3298,-10.5 0.506,-2.022 1.2076,-7.5014 1.5592,-12.1764 0.3516,-4.675 1.2785,-12.775 2.0597,-18 0.7813,-5.225 1.8659,-14 2.4102,-19.5 1.1128,-11.2431 4.7054,-38.9896 5.519,-42.624 0.2926,-1.3068 0.7319,-5.751 0.9762,-9.876 0.2443,-4.125 0.7509,-8.2875 1.1257,-9.25 0.5529,-1.4197 0.1372,-1.75 -2.2029,-1.75 -6.4457,0 -7.3295,-1.8088 -7.3295,-15 0,-13.4889 0.8206,-15 8.1455,-15 3.7004,0 3.7004,0 3.7109,-28.25 0.012,-32.9007 -0.4818,-30.6202 7.4382,-34.3375 3.413,-1.6019 6.4304,-3.1526 6.7054,-3.446 5.8628,-6.25584 23.5458,-13.27781 26.3571,-10.46651 0.825,0.825 1.8023,1.5 2.1718,1.5 1.1658,0 20.9551,11.30801 21.3044,12.17381 0.1834,0.4544 0.9923,0.8262 1.7978,0.8262 5.7479,0 6.3689,3.2808 6.3689,33.646 0,28.354 0,28.354 4.25,28.3858 7.2719,0.054 7.75,0.9617 7.75,14.706 0,13.1782 -0.1945,13.6525 -6.0449,14.7456 -3.5449,0.6623 -3.5449,0.6623 -1.72,16.3394 1.0037,8.6225 1.604,16.8831 1.334,18.3569 -0.2701,1.4738 -0.117,2.8238 0.34,3 0.6922,0.2668 3.2344,19.7226 8.1432,62.3203 0.4436,3.85 1.2791,10.825 1.8566,15.5 0.5775,4.675 1.2709,10.975 1.5409,14 0.8304,9.3026 3.3895,29.2031 4.5009,35 0.5799,3.025 1.1657,7.3 1.3018,9.5 0.2475,4 0.2475,4 8.2001,4.2957 10.4758,0.3896 14.1151,4.6366 8.6532,10.0985 -1.9553,1.9553 -139.0839,2.9646 -149.3669,1.0993 z m 97.4959,-11.1458 c 22.9661,0.1317 22.9661,0.1317 22.2522,-7.108 -0.8809,-8.9329 -0.7588,-8.7397 -5.523,-8.7397 -8.5923,0 -9.1456,-10.1067 -0.592,-10.8157 3.8091,-0.3158 3.8091,-0.3158 3.1466,-6.5 -1.0057,-9.3878 -1.0929,-9.5359 -5.8111,-9.8792 -7.375,-0.5366 -9.2485,-10.7802 -1.979,-10.8204 7.5604,-0.042 6.8776,-15.2637 -0.7089,-15.8034 -10.0264,-0.7133 -9.7307,-12.1813 0.3142,-12.1813 2.7043,0 2.854,-0.2075 2.3435,-3.25 -0.2998,-1.7875 -0.8395,-5.1625 -1.1991,-7.5 -0.6342,-4.1213 -0.7666,-4.25 -4.375,-4.25 -8.5765,0 -10.5921,-9.6639 -2.3532,-11.2826 7.5893,-1.4912 6.0349,-15.0903 -1.8443,-16.1355 -9.1645,-1.2157 -9.0801,-11.5819 0.094,-11.5819 3.3471,0 3.6201,-1.1964 2.3641,-10.3604 -0.5843,-4.2629 -0.8632,-4.6396 -3.4349,-4.6396 -4.5841,0 -7.6248,-1.6511 -8.3481,-4.5329 -1.0317,-4.1107 1.6391,-7.4671 5.9419,-7.4671 3.9962,0 4.1167,-0.4809 2.3389,-9.3332 -1.138,-5.6668 -1.138,-5.6668 -27.2959,-5.6668 -28.247,0 -26.5761,-2.6147 -31.9514,50 -0.3471,3.3968 -1.6397,13.1378 -3.6494,27.5 -1.1373,8.1281 -2.7699,22.3704 -3.9547,34.5 -0.4566,4.675 -1.7862,15.25 -2.9546,23.5 -1.1684,8.25 -2.5578,19.05 -3.0877,24 -0.5299,4.95 -1.2471,11.1293 -1.5938,13.7316 -0.5546,4.163 40.2663,8.3092 48.0099,4.8764 0.4864,-0.2156 11.2191,-0.3328 23.8505,-0.2603 z m -33.4788,-15.6234 c -5.8837,-0.4135 -6.3583,-1.2393 -7.0244,-12.2243 -1.2271,-20.2336 14.9557,-30.3653 27.8714,-17.4496 15.6152,15.6152 4.4876,31.4544 -20.847,29.6739 z m 13.244,-16.1018 c 0,-5.9536 -1.793,-7.9934 -5.5296,-6.2909 -4.8162,2.1943 -3.5871,11.1684 1.5296,11.1684 4,0 4,0 4,-4.8775 z m -10.7883,-38.0934 c -8.5848,-0.6232 -8.7282,-0.7811 -9.5515,-10.521 -0.9593,-11.3486 3.7348,-22.5081 9.4679,-22.5081 0.9646,0 2.032,-0.45 2.3719,-1 4.2479,-6.8733 20.6114,5.1775 20.6482,15.2063 0.072,19.7573 -0.7512,20.4332 -22.9365,18.8228 z m 10.5888,-16.7813 c -0.5823,-8.8024 -6.8905,-8.515 -7.8057,0.3557 -0.5052,4.8965 -0.5052,4.8965 3.8005,4.5418 4.3057,-0.3547 4.3057,-0.3547 4.0052,-4.8975 z m -17.8383,-39.0772 c -2.9179,-2.3629 -3.1648,-18.8341 -0.3705,-24.7225 5.4463,-11.4773 24.0681,-10.6864 29.0486,1.2336 2.0738,4.9632 2.0525,19.612 -0.033,22.795 -2.1423,3.2696 -24.7866,3.8181 -28.645,0.6939 z m 18.0378,-15.2424 c 0,-5.5915 -2.3291,-7.8928 -6,-5.9282 -3.4779,1.8613 -2.883,10.7559 0.75,11.2139 4.5906,0.5787 5.25,-0.085 5.25,-5.2857 z m 32.6667,-51.9389 c 0,-3.4201 1.7461,-3.2257 -27.9167,-3.109 -12.054,0.047 -14.75,-0.1997 -14.75,-1.3521 0,-0.7756 -0.408,-1.6623 -0.9068,-1.9705 -0.4987,-0.3083 -0.684,0.291 -0.4119,1.3317 0.4682,1.7902 -0.2572,1.8908 -13.4741,1.8686 -15.4785,-0.026 -16.1422,0.1313 -15.467,3.6633 0.8251,4.3161 72.9265,3.8891 72.9265,-0.432 z m -12.438,-17.7393 c 0.2633,-1.5125 0.3374,-6.575 0.1648,-11.25 -0.1727,-4.675 -0.3318,-12.1066 -0.3537,-16.5148 -0.04,-8.0147 -0.04,-8.0147 -24.0398,-8.0508 -24,-0.036 -24,-0.036 -24.0146,2.5148 -0.091,15.9742 -0.1214,32.9001 -0.061,34.3008 0.1518,3.516 47.6894,2.5319 48.3042,-1 z m -30.7287,-1.6616 c -12.358,-5.4926 -12.5355,-23.6611 -0.2851,-29.1853 19.0303,-8.5815 32.83,18.7824 14.1037,27.9667 -5.9411,2.9138 -9.3317,3.2128 -13.8186,1.2186 z m 9.3,-11.7884 c 3.3943,-3.3943 -0.5974,-9.0492 -4.8,-6.8 -3.5297,1.889 -2.0019,8 2,8 0.88,0 2.14,-0.54 2.8,-1.2 z m -12.5491,-33.05 c 0.3177,-0.9509 4.4053,-1.1725 17.0833,-0.926 10.0822,0.196 16.6658,-0.051 16.6658,-0.6257 0,-0.7649 -18.8738,-12.6552 -22.3429,-14.0757 -0.8641,-0.3539 -12.7914,5.359 -15.102,7.2334 -0.5803,0.4708 -3.0571,1.8208 -5.5039,3 -6.4956,3.1305 -6.3957,4.644 0.3064,4.644 3.0384,0 5.8025,0.45 6.1424,1 0.8527,1.3798 2.2488,1.2529 2.7509,-0.25 z m -77.0284,65.6933 c -2.8097,-1.9679 -3.113,-7.9178 -0.4725,-9.2673 13.9254,-7.1174 29.25,-9.2758 29.25,-4.1198 0,2.8165 -1.8272,6.9438 -3.0741,6.9438 -0.618,0 -2.5417,0.6579 -4.2748,1.462 -11.8756,5.5099 -18.4815,7.0455 -21.4286,4.9813 z m 166.7775,0.2633 c -1.375,-0.7045 -4.525,-1.8638 -7,-2.5762 -13.5591,-3.9024 -18.3421,-8.7958 -13.1713,-13.4754 2.4389,-2.2071 24.8728,3.4668 28.3089,7.1597 4.5895,4.9326 -1.9403,12.0676 -8.1376,8.8919 z m -191.4746,-30.4124 c -7.0588,-0.599 -10.6516,-6.4548 -6.218,-10.1344 1.9668,-1.6322 54.2596,-1.7641 56.2144,-0.1417 1.8045,1.4976 1.9288,6.0001 0.2282,8.2626 -1.273,1.6935 -37.0786,3.129 -50.2246,2.0135 z m 175.3665,-0.09 c -2.6116,-0.4815 -4.41,-4.829 -3.3018,-7.9817 1.358,-3.8633 54.568,-4.9136 57.6599,-1.1382 2.2369,2.7314 2.2041,4.1338 -0.1647,7.0546 -1.7609,2.1712 -44.7359,3.8089 -54.1934,2.0653 z m -138.8919,-27.9507 c -13.3265,-4.8852 -13.961,-5.3112 -13.9847,-9.3888 -0.037,-6.395 6.5947,-6.8662 19.4847,-1.3845 1.65,0.7017 5.25,2.0769 8,3.0559 7.0854,2.5226 9.0599,7.5571 4.2775,10.9069 -3.0279,2.1207 -3.5445,2.0281 -17.7775,-3.1895 z m 131.655,2.9174 c -3.5984,-3.9761 0.2034,-11.5908 4.8892,-9.7927 0.8578,0.3292 1.32,0.2108 1.0271,-0.2631 -0.4785,-0.7742 7.5019,-3.9857 17.7167,-7.1297 5.5165,-1.698 8.9495,0.6464 8.5188,5.8175 -0.4859,5.8326 -28.2707,15.6566 -32.1518,11.368 z"
       style="fill:#000000" />
  </g>
</svg>
