<?xml version="1.0" encoding="UTF-8" standalone="no"?>
<svg
   xmlns:dc="http://purl.org/dc/elements/1.1/"
   xmlns:cc="http://creativecommons.org/ns#"
   xmlns:rdf="http://www.w3.org/1999/02/22-rdf-syntax-ns#"
   xmlns:svg="http://www.w3.org/2000/svg"
   xmlns="http://www.w3.org/2000/svg"
   version="1.1"
   id="svg7317"
   viewBox="0 0 487.91705 672.53516"
   height="24"
   width="17.41174">
  <defs
     id="defs7319" />
  <metadata
     id="metadata7322">
    <rdf:RDF>
      <cc:Work
         rdf:about="">
        <dc:format>image/svg+xml</dc:format>
        <dc:type
           rdf:resource="http://purl.org/dc/dcmitype/StillImage" />
        <dc:title></dc:title>
      </cc:Work>
    </rdf:RDF>
  </metadata>
  <g
     transform="translate(88.139126,29.173169)"
     id="layer1">
    <path
       id="path4379"
       d="m 73.069444,643.11833 c -3.8783,-0.412 -4.25,-0.6959 -4.25,-3.2457 0,-2.6816 4.9562,-52.9348 7.0593,-71.5773 0.5576,-4.9426 1.3348,-9.2836 1.7272,-9.6466 0.5933,-0.5489 123.295296,-52.7514 138.495596,-58.9218 3.5875,-1.4563 4.8732,-1.6294 5.1469,-0.6931 0.2006,0.6864 0.9031,10.023 1.5611,20.748 0.6579,10.725 1.7759,27.15 2.4844,36.5 0.7084,9.35 1.1554,17.1485 0.9934,17.33 -0.162,0.1816 -4.0748,1.1561 -8.6951,2.1658 -16.1984,3.5398 -29.7397,10.074 -39.1337,18.8836 -2.1235,1.9913 -7.0117,7.2206 -10.8628,11.6206 -16.3445,18.6744 -22.7151,24.3984 -32.2763,28.9999 -12.6311,6.0789 -20.6332,7.6389 -40.999996,7.9928 -9.35,0.1624 -18.9125,0.092 -21.25,-0.1562 z m 11.7182,-158.4795 c -0.1432,-6.1259 5.5938,-63.6242 6.4405,-64.5497 0.6002,-0.656 17.741296,-8.2441 38.091296,-16.8625 20.35,-8.6184 47.35,-20.0902 60,-25.493 12.65,-5.4027 23.1098,-9.5146 23.2439,-9.1375 0.3968,1.115 4.0648,60.6573 3.7574,60.9923 -0.3848,0.4196 -122.533696,52.8535 -130.251296,55.912 -0.6875,0.2725 -1.2643,-0.1152 -1.2818,-0.8616 z m -106.8957,-94.4918 c -4.3804,-5.5688 -4.6234,-5.2525 32.8656,-42.7857 33.3038,-33.3432 35.1107,-34.9795 38.6288,-34.9795 4.4635,0 7.4331,3.0942 7.4331,7.7449 0,2.7711 -3.9198,7.043 -34.766,37.8892 -33.0278,33.0278 -34.949,34.7659 -38.4274,34.7659 -2.7645,0 -4.1692,-0.6455 -5.7341,-2.6348 z m 311.693396,-32.1311 c -30.8462,-30.8462 -34.7659,-35.1181 -34.7659,-37.8892 0,-4.6507 2.9695,-7.7449 7.433,-7.7449 3.5181,0 5.3251,1.6363 38.6289,34.9795 37.8792,37.9239 37.7269,37.7226 32.4835,42.966 -1.6081,1.6081 -3.5854,2.4545 -5.734,2.4545 -2.9765,0 -6.4922,-3.2126 -38.0455,-34.7659 z M 98.219044,339.03183 c 0.3715,-4.2625 2.047996,-21.6313 3.725596,-38.5973 l 3.0502,-30.8474 -6.587696,-9.8943 c -6.1992,-9.3109 -7.5535,-12.9187 -5.8224,-15.5113 1.3506,-2.0227 5.0643,-3.3997 9.168896,-3.3997 l 4.0658,0 0,-26 0,-26 -5.345,0 c -6.048796,0 -8.654996,-1.8922 -8.654996,-6.2837 0,-2.2187 2.0255,-4.0913 13.050996,-12.0659 l 13.051,-9.4396 12.199,-17.2797 c 14.2287,-20.1549 16.9781,-22.3765 26.8585,-21.7026 8.449,0.5763 11.9707,3.4522 21.29,17.3859 13.7222,20.5166 14.5587,21.4534 27.5251,30.8263 6.6994,4.8427 12.5348,9.7621 12.9676,10.9321 1.0334,2.7934 -0.7398,6.5546 -3.3637,7.1347 -1.1432,0.2527 -3.8785,0.5794 -6.0785,0.726 l -4,0.2665 -0.2669,25.75 -0.2669,25.75 4.9061,0 c 5.7779,0 9.3777,2.3592 9.3777,6.1458 0,1.4478 -2.8133,6.732 -6.5943,12.386 l -6.5942,9.861 0.5091,12.5536 c 0.28,6.9045 0.6833,13.9878 0.8962,15.7407 0.3788,3.1195 0.2241,3.2549 -7.2899,6.3797 -4.2223,1.756 -28.7471,12.1343 -54.4996,23.0629 -25.7524,10.9287 -47.076996,19.8703 -47.387896,19.8703 -0.3109,0 -0.2613,-3.4875 0.1102,-7.75 z m 83.600396,-124.25 0,-26 -26.5,0 -26.5,0 0,26 0,26 26.5,0 26.5,0 0,-26 z m 129.0037,76.1984 c -24.2338,-10.7989 -28.6945,-13.115 -29.8215,-15.4838 -1.7204,-3.6157 -0.4072,-7.7154 3.1056,-9.696 2.3369,-1.3176 3.1071,-1.3036 6.9653,0.1264 10.4291,3.8652 53.4281,23.3288 55.1969,24.9848 2.8192,2.6397 2.6243,8.5818 -0.3608,10.9991 -1.271,1.0291 -3.2735,1.8479 -4.45,1.8195 -1.1766,-0.028 -14.9626,-5.7658 -30.6355,-12.75 z m -347.003696,4.0922 c -5.0194,-1.8456 -6.6789,-8.1114 -3.1513,-11.8978 1.0168,-1.0914 13.8182,-6.5741 28.4475,-12.1838 28.5297,-10.9398 29.5474,-11.1257 33.1029,-6.0496 2.0841,2.9756 2.0304,6.1088 -0.1491,8.6978 -1.0678,1.2683 -11.9722,5.9898 -27.9702001,12.1108 -26.0441999,9.9647 -27.3990999,10.3818 -30.2797999,9.3226 z m -49.5455,-74.7451 c -3.0303,-3.0303 -3.2344,-7.7656 -0.4545,-10.5455 1.9466,-1.9466 3.3333,-2 51.9274,-2 l 49.9274,0 2.1507,2.7343 c 2.5822,3.2826 2.0964,7.8458 -1.1193,10.5157 -1.9441,1.6141 -5.9077,1.75 -51.0425,1.75 l -48.9346,0 -2.4546,-2.4545 z m 379.999996,0 c -2.9997,-2.9997 -3.1313,-6.4153 -0.382,-9.9106 l 2.0726,-2.6349 49.9274,0 c 48.5941,0 49.9809,0.053 51.9275,2 2.7798,2.7799 2.5757,7.5152 -0.4546,10.5455 l -2.4545,2.4545 -49.0909,0 -49.0909,0 -2.4546,-2.4545 z m -3.7995,-53.3742 c -2.1966,-2.4272 -2.1024,-7.314 0.1883,-9.7727 1.0139,-1.0883 13.5795,-6.5751 27.9236,-12.1929 22.8177,-8.9365 26.4236,-10.0837 28.8252,-9.1707 5.318,2.022 7.0894,7.7467 3.6579,11.8215 -1.0349,1.229 -11.6879,5.9734 -26.0704,11.6108 -25.8373,10.1273 -31.2404,11.333 -34.5246,7.704 z m -271.154996,-3.6132 c -1.65,-0.75 -14.4750001,-6.3554 -28.5000001,-12.4564 -14.0249999,-6.101 -26.0624999,-11.8557 -26.7499999,-12.7883 -1.9683,-2.67 -1.5241,-8.0393 0.8625,-10.4259 2.9127,-2.9127 5.626,-2.3001 22.3875,5.0548 7.6999999,3.3788 19.8499999,8.6802 27,11.781 15.2171,6.5993 16.9,7.8822 16.9,12.8834 0,6.2992 -5.3017,8.9507 -11.9,5.9514 z m 27.3282,-46.4031 c -3.0819,-1.2075 -69.8003,-68.1956 -70.4335,-70.7182 -1.2506,-4.9829 5.0389,-10.4046 9.8553,-8.4953 1.2375,0.4905 17.6624999,16.357 36.5,35.258801 30.0577,30.160299 34.25,34.741599 34.25,37.428299 0,4.6409 -5.681,8.2859 -10.1718,6.5264 z m 211.934496,-0.7203 c -2.9546,-1.6031 -4.3221,-5.0897 -3.4064,-8.6847 0.3152,-1.2375 16.0166,-17.662499 34.892,-36.499999 32.52,-32.454801 34.5098,-34.250001 37.9627,-34.250001 2.7789,0 4.1543,0.649 5.7945,2.7343 4.1919,5.329 3.5467,6.1703 -32.2739,42.081301 -29.844,29.919399 -36.78,36.277199 -39.432,36.144399 -0.4398,-0.022 -2.0314,-0.7084 -3.5369,-1.5253 z M 95.947044,82.031831 c -2.0608,-1.7223 -22.1276,-52.285301 -22.1276,-55.755801 0,-0.9064 1.3613,-3.0093 3.0251,-4.6732 2.4387,-2.4386 3.5535,-2.8962 5.75,-2.36 1.4987,0.3658 3.4911,1.4243 4.4276,2.3521 1.7081,1.6923 21.797296,52.844701 21.797296,55.501601 0,0.7786 -0.9327,2.6013 -2.0726,4.0505 -2.4803,3.1531 -7.585296,3.5714 -10.799796,0.8848 z m 109.261496,-0.5917 c -1.818,-1.5638 -2.7157,-3.3079 -2.7021,-5.25 0.028,-3.9574 19.8555,-54.593401 21.9901,-56.158301 3.006,-2.2036 7.9533,-1.5352 10.2503,1.3849 1.1399,1.4492 2.0726,3.4529 2.0726,4.4527 0,1.4369 -12.951,37.9171 -18.1755,51.196301 -1.3808,3.5097 -5.3929,6.7161 -8.4036,6.7161 -1.2702,0 -3.5345,-1.0537 -5.0318,-2.3417 z m -53.0738,-3.6652 c -1.2015,-0.4842 -2.664,-1.7761 -3.25,-2.8709 -0.7121,-1.3307 -1.0653,-18.200201 -1.0653,-50.882101 l 0,-48.8914 2.3144,-2.1744 c 2.9456,-2.7672 8.01,-2.8498 10.6856,-0.1743 1.9466,1.9466 2,3.3334 2,51.9275 l 0,49.927401 -2.6349,2.0726 c -2.8259,2.2228 -4.5959,2.4571 -8.0498,1.0656 z"
       style="fill:#000000" />
  </g>
</svg>
