<?xml version="1.0" encoding="UTF-8" standalone="no"?>
<svg
   xmlns:dc="http://purl.org/dc/elements/1.1/"
   xmlns:cc="http://creativecommons.org/ns#"
   xmlns:rdf="http://www.w3.org/1999/02/22-rdf-syntax-ns#"
   xmlns:svg="http://www.w3.org/2000/svg"
   xmlns="http://www.w3.org/2000/svg"
   version="1.1"
   id="svg7899"
   viewBox="0 0 144.53983 147.46387"
   height="24"
   width="23.52410">
  <defs
     id="defs7901" />
  <metadata
     id="metadata7904">
    <rdf:RDF>
      <cc:Work
         rdf:about="">
        <dc:format>image/svg+xml</dc:format>
        <dc:type
           rdf:resource="http://purl.org/dc/dcmitype/StillImage" />
        <dc:title></dc:title>
      </cc:Work>
    </rdf:RDF>
  </metadata>
  <g
     transform="translate(-160.94663,-415.32264)"
     id="layer1">
    <path
       id="path4367"
       d="m 207.60996,562.17334 c -0.763,-0.3096 -0.9942,-1.5751 -0.625,-3.421 0.3223,-1.6113 0.1922,-2.9495 -0.289,-2.9736 -8.3348,-0.4183 -15.637,-2.0234 -18.0611,-3.9701 l -2.8139,-2.2597 11.1188,0.6467 11.1189,0.6466 0.5403,-4.7598 c 0.2971,-2.6179 0.4498,-4.8537 0.3391,-4.9685 -1.0422,-1.0812 -17.0603,-2.4295 -24.3606,-2.0505 -7.256,0.3767 -9.4998,0.171 -10.4357,-0.9567 -0.9335,-1.1248 -0.8911,-1.6226 0.195,-2.2939 2.7295,-1.6869 15.65,-2.1769 25.3167,-0.9601 5.3593,0.6746 9.8885,1.0563 10.065,0.8482 0.1764,-0.2081 0.5969,-2.4894 0.9344,-5.0695 0.7319,-5.5944 1.2631,-5.3213 -13.1683,-6.7684 -11.2063,-1.1236 -15.5356,-0.8252 -24.4921,1.6882 -5.0284,1.4111 -5.9528,1.439 -6.7346,0.2035 -1.4869,-2.3497 -1.1661,-2.6917 4.3131,-4.5972 5.7417,-1.9969 23.8045,-2.5334 35.366,-1.0504 l 6.1161,0.7845 0.5392,-4.784 c 0.3453,-3.0631 0.1268,-5.039 -0.6074,-5.4927 -2.1993,-1.3593 -12.2534,-2.2923 -24.6639,-2.2888 -11.5369,0 -12.9523,0.2151 -18.3708,2.75 -7.0047,3.2769 -7.251,3.3009 -7.9125,0.7711 -0.4149,-1.5864 0.4974,-2.4709 4.6334,-4.4918 9.9123,-4.8433 24.134,-5.4624 44.689,-1.9451 l 3.5391,0.6055 1.719,-14.3466 c 2.1083,-17.5954 2.1189,-16.8466 -0.2382,-16.8466 -2.3262,0 -3.2062,-1.1438 -2.17,-2.8205 0.5642,-0.9128 5.5799,-1.1554 19.684,-0.9522 16.0361,0.231 18.927,0.5018 18.927,1.7727 0,0.825 -1.0557,1.6495 -2.3459,1.8321 -2.0408,0.2889 -2.274,0.7442 -1.7932,3.5 0.3039,1.7424 1.5284,10.4244 2.7209,19.2934 l 2.1683,16.1256 5.125,0.6157 c 8.15309,0.9797 22.06089,0.7323 27.82569,-0.4949 5.4175,-1.1533 12.0804,-4.0085 17.1319,-7.3414 l 2.8328,-1.869 -0.3328,2.887 c -0.4283,3.7161 -4.9469,6.7965 -14.2742,9.7309 -6.0707,1.9098 -9.1976,2.2097 -22.344,2.1428 l -15.28539,-0.078 0.6628,4.5778 c 0.3646,2.5178 0.8183,4.8525 1.0081,5.1881 0.1899,0.3357 4.0701,0.9109 8.62259,1.2783 10.447,0.8432 22.6644,-0.7908 29.6797,-3.9695 2.9712,-1.3463 5.6025,-2.2475 5.8474,-2.0027 0.2448,0.2449 -0.3482,1.7882 -1.3178,3.4296 -2.9155,4.9356 -10.0463,6.6491 -27.6815,6.6518 l -14.74969,0 0.6351,5 c 0.3493,2.75 0.8383,5.225 1.0867,5.5 0.2483,0.275 6.44949,0.5 13.78029,0.5 14.1306,0 15.1801,0.5441 8.1053,4.2026 -2.4141,1.2484 -4.945,1.4455 -12.3305,0.9604 l -9.29289,-0.6104 0.591,4.2237 c 0.3251,2.323 0.7617,4.7793 0.9704,5.4584 0.3452,1.1236 -3.2657,3.8791 -4.0524,3.0924 -0.1842,-0.1843 -2.9818,-19.9082 -6.2168,-43.8311 l -5.8819,-43.4958 -9.3578,-0.2896 c -5.1469,-0.1594 -9.736,0.088 -10.1981,0.5505 -0.6787,0.6787 -11.8127,81.5861 -11.8333,85.9891 -0.01,1.2625 -1.4933,1.5029 -3.7168,0.6007 z m -33.289,-92.6515 c -5.225,-2.3096 -10.0625,-4.5633 -10.75,-5.0082 -2.0904,-1.353 -1.4416,-3.6976 1,-3.6138 3.7256,0.1279 23.25,9.3291 23.25,10.957 0,2.6088 -3.8038,1.9509 -13.5,-2.335 z m 103.49999,3.3008 c -1.0924,-1.7675 0.2832,-2.6907 11.0101,-7.3885 11.0435,-4.8364 12.9396,-5.3109 14.0492,-3.5155 1.0776,1.7436 -1.3802,3.3246 -12.0593,7.7572 -10.5904,4.3959 -12.015,4.7407 -13,3.1468 z m -64.22189,-5.1219 c -1.395,-1.3949 -0.5441,-3.8781 1.3289,-3.8781 1.0721,0 1.393,-1.8049 1.393,-7.8368 l 0,-7.8368 6.9695,-4.8054 6.9695,-4.8053 0.2805,-11.6079 c 0.2621,-10.8476 0.4115,-11.6078 2.2805,-11.6078 1.8698,0 2.0183,0.7604 2.2811,11.6845 l 0.2812,11.6844 6.4688,4.6161 6.4689,4.6161 0,7.9494 c 0,6.472 0.2846,7.9495 1.5314,7.9495 2.0893,0 3.089,2.9936 1.3643,4.0856 -2.1184,1.3414 -36.257,1.1531 -37.6176,-0.2075 z m 16.7219,-8.8781 0,-5 -4.5,0 -4.5,0 0,5 0,5 4.5,0 4.5,0 0,-5 z m 14,0 0,-5 -4.5,0 -4.5,0 0,5 0,5 4.5,0 4.5,0 0,-5 z m -6.9446,-13.0748 c -2.221,-1.6089 -4.2767,-2.9252 -4.5682,-2.9252 -0.9263,0 -8.4871,5.2393 -8.4896,5.8829 0,0.3394 3.8448,0.4709 8.5468,0.2923 l 8.5491,-0.3248 -4.0381,-2.9252 z m -54.5554,7.9963 c -5.7941,-4.7757 -6.0588,-5.2129 -4.1263,-6.8167 1.1663,-0.9679 2.457,-0.3666 6.7833,3.1602 2.9387,2.3955 5.343,4.9972 5.343,5.7815 0,2.763 -3.0539,1.9518 -8,-2.125 z m 91.82289,2.4776 c -0.3379,-0.8805 -0.1759,-1.893 0.3601,-2.25 0.536,-0.357 3.0573,-2.375 5.603,-4.4845 4.6011,-3.8128 6.7528,-4.0887 6.6714,-0.8556 -0.044,1.7365 -8.8813,9.191 -10.8962,9.191 -0.6182,0 -1.4004,-0.7204 -1.7383,-1.6009 z m -78.28279,-15.3384 c -3.9782,-6.0167 -6.9381,-11.4167 -6.5776,-12 1.5844,-2.5637 3.982,-0.3837 10.54,9.5832 5.4514,8.285 6.7541,10.9444 5.8781,12 -0.6191,0.7459 -1.4589,1.3561 -1.8665,1.3561 -0.4075,0 -3.9958,-4.9227 -7.974,-10.9393 z m 63.0299,9.5237 c -0.9684,-1.1669 0.097,-3.3966 5.61739,-11.7507 6.4782,-9.8045 10.3126,-13.2277 10.3126,-9.2066 0,1.7775 -11.1243,19.4013 -13.4809,21.357 -0.8909,0.7394 -1.59969,0.6237 -2.44909,-0.3997 z m -44.8269,-11.8344 c -1.9826,-2.474 -4.439,-12.9541 -3.3027,-14.0905 1.5869,-1.5868 3.521,0.9041 5.5345,7.1277 1.6604,5.1323 1.54,8.2128 -0.3211,8.2128 -0.4999,0 -1.3597,-0.5625 -1.9107,-1.25 z m 33.1217,-0.2416 c -0.7047,-1.8365 2.4451,-13.2729 3.9039,-14.1745 0.5078,-0.3138 1.5277,0.045 2.2665,0.7978 1.1256,1.1466 0.9885,2.4117 -0.846,7.8067 -2.2221,6.535 -4.1715,8.5743 -5.3244,5.57 z"
       style="fill:#000000" />
  </g>
</svg>
